<?xml version="1.0" standalone="no"?>
<!DOCTYPE svg PUBLIC "-//W3C//DTD SVG 20010904//EN"
 "http://www.w3.org/TR/2001/REC-SVG-20010904/DTD/svg10.dtd">
<svg version="1.0" xmlns="http://www.w3.org/2000/svg"
 width="2362.000000pt" height="2362.000000pt" viewBox="0 0 2362.000000 2362.000000"
 preserveAspectRatio="xMidYMid meet">
<metadata>
Created by potrace 1.11, written by Peter Selinger 2001-2013
</metadata>
<g transform="translate(0.000000,2362.000000) scale(0.100000,-0.100000)"
fill="#000000" stroke="none">
<path d="M5680 17624 c-378 -101 -1064 -365 -1505 -580 -277 -135 -606 -326
-905 -528 -215 -144 -632 -448 -736 -535 -17 -14 -48 -39 -69 -56 -33 -25
-132 -106 -195 -159 -290 -242 -538 -493 -816 -826 -175 -209 -231 -281 -296
-375 -54 -78 -208 -323 -208 -330 0 -2 -14 -28 -31 -57 -169 -287 -294 -611
-405 -1057 -22 -88 -56 -229 -59 -241 -12 -59 -44 -233 -49 -270 -3 -25 -8
-54 -10 -66 -4 -19 -11 -76 -21 -159 -2 -16 -7 -66 -10 -110 -4 -44 -9 -93
-11 -110 -21 -228 -21 -665 1 -809 2 -11 6 -59 10 -106 3 -47 8 -92 10 -100 2
-8 6 -42 10 -75 3 -33 10 -85 15 -115 5 -30 12 -73 15 -95 26 -178 151 -672
230 -910 76 -226 184 -452 347 -728 79 -132 209 -328 255 -385 17 -20 57 -68
88 -107 56 -69 129 -157 149 -179 6 -6 33 -38 61 -71 27 -33 52 -62 55 -65 3
-3 46 -50 95 -104 100 -110 220 -232 311 -315 32 -30 79 -73 104 -96 411 -378
1267 -991 1745 -1250 39 -20 75 -41 80 -45 6 -5 69 -38 141 -73 118 -59 182
-90 339 -162 301 -139 901 -363 1205 -450 l124 -35 6124 0 6124 0 186 56 c539
162 1222 446 1676 696 380 210 1065 675 1381 939 11 10 56 46 100 80 44 35 94
76 110 90 424 369 552 502 957 989 221 267 484 706 612 1023 45 110 94 245
101 277 1 8 17 62 33 120 27 93 88 320 97 360 1 8 8 33 13 55 29 110 72 354
88 490 3 33 8 67 9 76 2 9 6 52 10 95 4 43 9 92 11 108 22 193 22 642 -1 836
-2 19 -6 70 -10 112 -3 42 -7 85 -9 95 -2 10 -7 49 -11 88 -4 38 -8 72 -10 75
-2 3 -7 33 -10 65 -4 33 -9 62 -10 65 -2 3 -6 26 -10 50 -3 25 -10 61 -15 80
-5 19 -12 51 -15 70 -14 80 -120 483 -167 630 -51 162 -128 348 -209 507 -122
240 -307 537 -428 688 -58 73 -198 242 -216 261 -5 6 -28 32 -50 59 -251 302
-562 600 -946 906 -85 68 -176 140 -202 159 -26 19 -64 48 -85 64 -20 15 -98
72 -172 124 -74 53 -137 99 -140 102 -10 12 -369 250 -495 327 -427 265 -758
424 -1455 698 -58 23 -204 76 -220 80 -8 2 -62 20 -119 40 -57 20 -167 54
-244 76 l-140 39 -6126 -1 c-5352 -1 -6133 -3 -6181 -15z m12401 -123 c214
-61 662 -219 864 -306 17 -7 113 -48 215 -91 278 -118 726 -344 746 -376 5 -7
-28 -9 -106 -4 -62 4 -116 9 -120 11 -4 2 -13 -7 -20 -20 -10 -18 -19 -24 -33
-19 -10 3 -103 7 -206 9 -183 3 -188 4 -226 29 -60 41 -108 50 -270 51 -123 1
-165 6 -235 25 -47 12 -96 29 -110 36 -14 7 -52 15 -85 18 -101 9 -239 20
-262 20 -13 1 -23 5 -23 9 0 5 24 6 54 4 45 -3 59 0 83 18 l28 23 -22 45 -21
44 -74 8 c-115 12 -153 13 -159 3 -3 -4 -21 -2 -40 6 -44 18 -203 39 -297 39
-87 0 -102 -11 -105 -73 -2 -38 2 -46 29 -65 45 -31 174 -59 217 -47 19 5 39
7 44 3 7 -5 43 -68 43 -76 0 -3 -165 2 -175 6 -5 2 -20 -6 -32 -18 l-23 -23
-47 21 c-27 11 -57 28 -68 38 -62 55 -166 87 -303 95 -73 3 -84 2 -93 -15 -13
-25 -96 -26 -142 -2 -24 12 -65 17 -157 19 -69 1 -126 4 -127 5 -5 3 -23 6
-44 8 -18 1 -20 5 -14 32 10 43 -14 65 -94 89 -94 28 -115 31 -216 35 -49 2
-103 7 -120 11 -16 4 -37 7 -46 6 -9 -2 -22 4 -29 13 -7 8 -25 15 -41 15 -19
0 -29 5 -29 15 0 36 -129 77 -242 77 -32 0 -60 4 -63 9 -6 8 -141 54 -187 63
-13 2 -42 9 -65 14 -52 12 -105 6 -161 -18 -38 -17 -42 -22 -38 -47 14 -77 17
-83 41 -83 12 0 42 -9 66 -19 71 -32 205 -55 304 -52 24 0 49 -6 62 -17 22
-17 22 -17 -38 -19 -33 -2 -68 -7 -79 -13 -10 -5 -33 -10 -50 -10 -17 0 -47
-7 -67 -15 -19 -8 -45 -15 -57 -15 -24 -1 -57 -25 -73 -55 -9 -15 -23 -20 -66
-21 -75 -2 -107 -11 -107 -32 -1 -16 -29 -75 -30 -61 0 4 -15 3 -32 -1 -24 -5
-40 -2 -59 11 -14 10 -40 21 -57 24 -27 4 -32 2 -38 -19 l-6 -25 -27 20 c-31
23 -71 32 -149 33 -62 1 -84 -17 -102 -85 -6 -21 -16 -39 -21 -39 -7 0 -10
-18 -7 -46 3 -41 1 -45 -17 -39 -11 3 -54 10 -96 15 -86 11 -128 2 -136 -29
-6 -24 -44 -40 -104 -45 -25 -1 -50 -5 -56 -9 -5 -3 -17 3 -26 14 -16 18 -15
19 32 19 48 0 48 0 55 38 10 63 8 68 -44 92 -27 13 -50 25 -50 26 0 2 9 18 20
37 28 47 79 72 219 106 68 16 130 36 138 44 11 11 13 26 8 57 -6 36 -12 44
-42 56 -36 15 -110 12 -159 -6 -13 -5 -53 -12 -91 -15 -123 -10 -295 -79 -267
-108 3 -2 -8 -14 -25 -26 -19 -14 -28 -27 -24 -37 3 -8 -1 -22 -10 -32 -8 -9
-22 -41 -30 -71 -14 -48 -14 -56 0 -77 9 -14 32 -28 57 -35 22 -5 59 -19 80
-29 22 -11 43 -17 48 -14 4 3 8 1 8 -4 0 -5 -46 -26 -102 -47 -57 -20 -110
-44 -119 -52 -15 -13 -17 -12 -15 2 1 19 -39 53 -69 59 -12 2 -45 7 -75 11
l-55 6 -18 -45 c-15 -37 -16 -49 -6 -68 7 -13 -7 -4 -32 22 -38 39 -60 51
-157 84 -62 21 -137 40 -165 43 -29 2 -77 12 -107 23 -30 11 -66 20 -80 22
-14 2 -25 9 -25 18 0 10 -25 22 -78 37 -101 29 -249 23 -300 -11 -18 -12 -45
-21 -62 -21 -96 2 -300 -113 -391 -221 -126 -151 -175 -193 -274 -235 -137
-58 -152 -90 -119 -254 6 -27 13 -61 15 -75 6 -36 57 -78 109 -92 39 -10 44
-15 38 -33 -9 -30 -4 -93 12 -130 13 -33 13 -33 -18 -40 -18 -4 -37 -7 -43 -6
-18 2 -98 -35 -112 -52 -8 -9 -23 -35 -35 -58 -12 -23 -26 -40 -32 -38 -5 2
-9 8 -7 13 6 19 -33 77 -56 83 -14 3 -32 23 -47 53 -13 26 -31 50 -39 53 -8 3
-27 24 -42 47 -24 36 -26 45 -17 75 9 29 8 38 -15 69 -14 20 -31 36 -38 36 -8
0 -20 14 -29 30 -9 17 -20 30 -25 31 -6 0 -28 1 -50 1 -22 0 -44 -1 -50 -1 -5
-1 -25 -14 -43 -31 -44 -38 -75 -129 -58 -166 15 -34 15 -34 -18 -34 -40 0
-151 -77 -173 -119 -12 -24 -14 -40 -7 -58 6 -17 5 -31 -7 -49 -15 -23 -15
-28 1 -69 15 -41 20 -45 53 -47 64 -3 79 0 131 25 50 23 51 24 57 4 4 -13 1
-23 -11 -30 -14 -7 -16 -17 -10 -56 8 -50 17 -61 54 -61 23 0 24 -1 6 -20 -42
-46 -6 -121 66 -140 24 -7 49 -24 69 -48 25 -31 30 -45 29 -84 -1 -26 -5 -52
-9 -59 -6 -8 -44 -10 -141 -6 -74 4 -147 9 -164 12 -22 4 -43 -2 -81 -24 -58
-33 -66 -54 -58 -146 9 -93 6 -117 -15 -146 -28 -37 -28 -98 0 -133 14 -17 19
-35 15 -50 -4 -17 3 -31 29 -56 29 -28 40 -32 80 -32 58 2 65 -14 35 -72 -16
-29 -38 -51 -69 -69 -25 -14 -58 -38 -73 -54 -26 -27 -65 -103 -53 -103 4 0 0
-9 -8 -20 -9 -13 -13 -38 -10 -70 4 -49 3 -52 -44 -95 -26 -24 -54 -45 -60
-46 -7 -1 -16 -2 -20 -3 -22 -4 -83 -50 -88 -66 -3 -10 -26 -40 -51 -66 -25
-27 -49 -65 -56 -88 -6 -23 -27 -60 -46 -84 -19 -24 -40 -63 -48 -88 -7 -25
-22 -58 -33 -73 -28 -39 -30 -100 -3 -142 11 -19 21 -44 21 -54 -1 -11 1 -45
4 -76 2 -34 -1 -73 -9 -95 -8 -22 -14 -51 -14 -65 0 -15 -10 -39 -21 -54 -28
-35 -36 -100 -16 -123 10 -10 17 -40 18 -74 3 -68 35 -126 87 -154 18 -10 41
-32 49 -48 9 -17 31 -46 49 -64 21 -20 36 -46 40 -70 10 -57 33 -89 94 -132
34 -23 136 -108 171 -142 22 -21 73 -48 112 -59 24 -7 46 -2 105 21 83 34 122
37 202 20 93 -21 110 -18 217 39 70 37 159 59 220 53 26 -3 35 -10 51 -45 41
-87 79 -106 174 -91 56 10 59 9 84 -17 22 -23 25 -34 20 -61 -3 -18 -10 -62
-15 -98 -5 -36 -17 -86 -26 -112 -16 -45 -16 -49 5 -95 25 -57 63 -114 108
-162 42 -45 92 -130 92 -156 0 -11 7 -33 16 -50 29 -55 40 -108 31 -145 -8
-29 -5 -48 17 -101 33 -83 33 -94 -4 -149 -40 -59 -54 -91 -80 -192 -32 -120
-29 -218 8 -278 15 -25 36 -70 46 -100 10 -30 33 -84 51 -120 28 -53 34 -78
36 -135 1 -38 8 -95 15 -125 7 -30 15 -72 18 -93 8 -51 28 -96 65 -147 17 -24
31 -47 31 -52 0 -5 19 -48 41 -95 37 -78 40 -90 31 -121 -6 -20 -9 -39 -6 -43
2 -4 6 -25 8 -47 4 -43 31 -77 86 -111 42 -25 70 -26 111 -5 68 35 147 53 218
50 72 -3 149 16 229 58 44 23 182 155 218 209 15 23 52 67 80 98 35 38 56 70
64 100 6 24 17 65 25 90 9 34 10 50 2 58 -7 7 7 18 49 39 122 58 134 74 137
192 1 51 -4 94 -17 133 l-19 59 76 73 c49 49 100 86 147 110 81 41 107 67 144
141 25 50 25 57 23 226 -3 162 -5 177 -25 206 -40 55 -53 108 -41 158 12 45
-1 104 -22 104 -14 0 -10 32 6 60 22 38 75 147 75 155 0 3 21 25 46 48 25 23
53 55 61 72 27 52 86 114 163 174 104 81 132 111 209 226 103 155 194 394 200
525 2 50 -1 58 -29 85 -29 27 -32 28 -63 16 -17 -7 -54 -20 -82 -28 -118 -35
-182 -52 -205 -57 -14 -2 -41 -7 -62 -11 -31 -6 -38 -4 -47 14 -9 17 -9 21 3
21 8 0 40 13 71 30 31 16 67 30 79 30 12 0 37 8 56 18 19 11 49 22 65 26 17 4
41 18 55 31 14 12 57 35 95 50 66 25 115 65 115 92 0 7 12 16 28 19 15 4 32
10 37 14 6 3 21 7 33 8 27 1 72 28 72 42 0 5 18 19 40 30 23 12 42 30 45 43 4
12 21 29 38 38 28 14 32 22 35 60 2 28 10 49 22 59 24 20 90 141 90 166 0 18
-76 118 -104 137 -6 4 -30 12 -53 18 -23 6 -48 18 -55 27 -11 13 -10 14 7 9
79 -23 231 -46 277 -42 29 2 97 7 151 10 l97 5 26 -42 c18 -29 46 -54 85 -77
56 -33 65 -45 60 -87 -1 -6 23 -34 53 -62 58 -55 109 -73 152 -53 22 10 24 9
24 -17 0 -27 29 -138 68 -258 10 -34 33 -81 49 -105 17 -24 39 -73 48 -109 10
-36 35 -94 55 -130 21 -36 50 -99 65 -141 36 -103 87 -159 143 -159 32 0 44 5
59 26 l20 27 10 -66 c6 -36 19 -77 29 -92 24 -37 71 -55 109 -42 71 24 98 70
90 153 -5 53 -58 151 -99 185 -27 23 -31 34 -34 82 -2 31 2 74 9 96 9 31 9 54
0 101 -7 34 -15 68 -17 75 -3 7 17 25 50 43 32 19 57 41 62 54 3 13 23 39 43
58 20 19 51 56 70 82 18 25 55 60 82 77 32 20 55 43 66 68 10 21 18 40 19 41
3 4 66 21 99 27 11 2 33 8 48 14 40 16 44 14 52 -16 7 -31 40 -78 89 -126 42
-43 96 -127 97 -152 1 -11 0 -33 -1 -48 -6 -98 105 -154 186 -92 l32 25 12
-53 c7 -28 24 -77 37 -107 32 -70 35 -96 37 -260 3 -176 1 -168 33 -172 34 -4
102 -98 102 -141 1 -15 8 -42 17 -58 8 -17 14 -33 11 -35 -2 -2 -31 25 -65 60
-61 64 -61 64 -134 73 -86 10 -86 10 -116 -28 -34 -42 -23 -76 49 -150 33 -34
70 -76 82 -93 12 -17 36 -45 53 -61 18 -17 37 -49 43 -73 7 -23 25 -57 40 -75
16 -17 47 -68 70 -112 54 -106 110 -183 160 -221 22 -17 51 -45 66 -62 14 -17
34 -33 44 -37 9 -3 25 -21 34 -40 9 -20 25 -38 34 -42 10 -3 25 -12 33 -19 19
-16 138 -47 156 -40 7 3 50 -6 95 -19 46 -14 110 -26 143 -26 34 -1 72 -6 86
-11 47 -18 68 -18 114 1 l45 20 14 -27 c12 -25 16 -27 74 -25 56 2 60 0 56
-17 -4 -14 7 -27 43 -50 57 -35 76 -37 115 -9 20 14 29 29 29 49 0 20 6 29 23
34 44 12 55 8 49 -19 -9 -47 5 -74 43 -81 48 -9 82 2 116 36 16 16 63 45 105
65 l75 36 -7 47 c-7 50 -17 62 -51 62 -41 0 -128 -22 -153 -40 -30 -20 -63
-33 -56 -21 3 4 -12 22 -33 39 -35 28 -43 30 -69 21 -18 -6 -43 -7 -69 -1 -29
7 -47 5 -66 -4 -19 -10 -33 -11 -53 -4 -55 21 -171 -5 -188 -42 -3 -7 -5 -1
-3 14 3 23 -3 30 -42 51 -25 13 -61 27 -80 31 -19 3 -40 15 -48 25 -7 11 -43
29 -79 41 -53 18 -71 20 -90 11 -32 -14 -101 -14 -110 0 -8 14 -90 49 -115 49
-23 0 -25 32 -8 107 15 62 -5 112 -56 139 -19 10 -36 29 -40 43 -4 14 -15 31
-26 39 -11 7 -18 19 -17 25 1 7 -1 25 -5 40 -6 23 -3 34 17 54 16 15 23 32 20
46 -6 31 -25 79 -39 97 -7 8 -15 45 -18 82 -4 37 -14 82 -23 100 -21 41 -87
107 -139 140 -32 20 -44 36 -59 82 -11 33 -31 66 -45 77 -24 20 -25 21 -12 82
18 85 19 87 59 73 23 -8 41 -27 65 -66 26 -45 40 -58 75 -70 37 -13 42 -18 42
-46 0 -46 27 -74 77 -81 42 -5 44 -4 117 68 41 41 96 93 123 115 l48 42 1 74
c2 134 -55 273 -138 334 -33 25 -148 162 -148 177 0 13 34 61 60 84 47 42 85
21 44 -24 -86 -93 23 -237 134 -177 59 32 96 142 64 192 -14 21 -13 23 18 33
18 7 52 22 77 35 24 13 53 24 63 24 10 0 21 4 24 9 3 4 23 11 43 15 28 4 60
25 119 75 86 74 111 117 150 256 9 33 27 74 40 92 38 50 24 147 -28 197 -13
12 -16 22 -10 28 18 18 -18 80 -88 149 -38 38 -76 81 -85 97 -10 16 -31 37
-46 46 l-29 17 21 29 c12 16 32 31 44 34 30 8 52 79 35 112 -12 22 -44 40 -84
46 -26 4 -23 19 8 42 21 16 32 18 53 10 17 -6 29 -18 29 -29 1 -11 2 -27 3
-36 2 -24 50 -69 75 -69 36 0 71 -24 68 -46 -1 -11 9 -35 23 -54 14 -18 25
-37 25 -42 0 -4 8 -25 17 -47 32 -74 96 -83 194 -27 76 43 86 89 39 183 -29
59 -138 178 -180 197 -19 9 -19 9 -1 35 23 32 32 90 18 112 -16 26 13 50 49
41 52 -14 90 -2 130 40 43 46 88 209 81 295 -7 82 4 94 39 47 92 -127 108
-145 122 -139 12 4 12 3 3 -9 -12 -14 -9 -32 17 -83 15 -30 15 -33 -1 -51 -33
-36 -13 -104 49 -164 18 -18 34 -42 34 -53 0 -11 14 -38 30 -59 17 -22 30 -51
30 -65 -1 -28 -22 -63 -36 -60 -5 2 -26 -6 -46 -16 -32 -16 -38 -24 -38 -51 0
-34 5 -32 -98 -49 -36 -6 -82 -32 -82 -46 0 -5 -16 -26 -35 -48 -19 -21 -35
-43 -35 -49 0 -6 -7 -15 -15 -19 -8 -5 -18 -29 -21 -54 -6 -44 -5 -47 35 -81
22 -19 41 -42 41 -50 0 -9 13 -30 30 -48 25 -26 34 -31 63 -26 19 3 41 8 49
11 21 8 42 59 35 85 -7 28 70 73 131 76 50 3 87 24 97 54 5 14 15 20 37 20 51
0 107 22 137 53 24 24 28 36 26 70 -3 44 -27 123 -51 168 -9 17 -12 41 -8 67
7 47 -18 104 -66 148 -16 16 -30 31 -30 34 0 3 14 14 30 24 17 9 28 21 25 26
-3 4 6 15 19 23 13 9 28 33 33 56 10 38 9 42 -23 78 -29 32 -38 37 -71 35 -42
-3 -95 16 -154 55 -39 26 -39 26 -19 45 11 10 20 24 20 30 0 12 -62 75 -104
104 l-28 20 22 43 21 43 -20 15 c-47 32 -208 172 -241 209 -68 75 -160 147
-192 150 -32 4 -62 -12 -52 -27 9 -15 -15 -10 -42 7 -33 22 -101 27 -127 9
-18 -13 -24 -12 -54 6 -18 12 -44 24 -57 27 l-24 7 31 97 31 97 50 6 c28 4 89
4 136 1 64 -4 93 -2 114 9 39 20 56 19 84 -7 20 -19 35 -23 90 -23 72 0 130 9
143 22 4 4 9 28 10 52 3 38 0 45 -24 57 -30 16 -35 39 -12 48 18 7 36 0 98
-36 42 -24 54 -27 83 -19 l34 9 0 -43 c0 -25 -6 -47 -13 -52 -7 -4 -17 -26
-23 -48 -22 -90 28 -158 251 -347 210 -176 203 -172 254 -157 35 10 43 18 52
50 8 27 9 46 1 68 -8 22 -8 40 0 61 5 17 7 38 3 48 -4 9 -9 39 -10 66 -2 27
-9 53 -17 58 -7 5 -19 12 -27 17 -11 6 -11 12 -1 31 11 21 7 27 -47 76 -38 36
-72 58 -100 65 -72 19 -49 45 32 39 3 -1 17 8 31 19 25 20 26 20 73 1 l48 -18
28 31 c15 18 34 46 42 62 9 19 32 38 61 52 66 32 129 26 190 -18 111 -78 532
-412 598 -474 6 -5 40 -35 75 -65 119 -102 346 -327 465 -460 27 -30 51 -57
54 -60 14 -13 274 -325 342 -410 66 -83 197 -276 248 -365 10 -16 41 -70 70
-120 29 -49 77 -139 107 -200 29 -60 59 -118 64 -129 28 -50 122 -308 158
-434 78 -269 148 -556 177 -732 18 -104 24 -142 29 -190 3 -30 8 -66 10 -80 2
-14 7 -54 10 -90 4 -36 8 -81 10 -100 28 -250 24 -674 -9 -955 -3 -22 -8 -67
-11 -100 -3 -33 -12 -103 -20 -155 -8 -52 -17 -113 -20 -135 -6 -34 -21 -110
-40 -192 -3 -14 -18 -26 -40 -33 -20 -7 -42 -24 -52 -41 -10 -17 -26 -29 -38
-29 -32 0 -62 -26 -75 -65 -10 -30 -9 -38 11 -64 25 -34 53 -44 99 -34 28 5
32 4 27 -13 -3 -10 -20 -71 -37 -134 -100 -371 -207 -619 -421 -975 -59 -99
-115 -189 -123 -200 -16 -20 -16 -20 -22 3 -6 21 -12 23 -50 20 -39 -3 -44 -1
-44 18 0 12 -6 27 -13 33 -8 6 -12 23 -9 40 5 38 -29 101 -69 124 -41 23 -51
22 -80 -9 -22 -24 -24 -33 -24 -127 0 -92 -2 -105 -24 -134 -13 -17 -36 -37
-52 -43 -46 -19 -64 -47 -64 -99 0 -45 -1 -46 -29 -44 -16 1 -37 9 -46 18 -23
21 -46 14 -109 -33 -27 -20 -59 -44 -71 -52 -12 -8 -32 -23 -45 -32 -32 -25
-205 -108 -224 -108 -14 0 -72 -32 -213 -118 -14 -9 -34 -29 -43 -44 -15 -26
-15 -30 6 -66 59 -102 215 -81 369 50 75 63 92 73 141 82 20 3 45 16 55 27 10
12 57 46 104 76 47 31 88 60 91 65 4 7 13 7 25 0 12 -6 27 -6 48 1 36 13 193
123 205 144 4 8 16 13 25 12 16 -4 -29 -67 -127 -179 -12 -14 -76 -88 -142
-165 -325 -381 -742 -752 -1305 -1162 -581 -423 -994 -666 -1545 -913 -166
-75 -410 -173 -617 -250 -145 -54 -159 -58 -200 -48 -23 5 -69 7 -100 4 -32
-3 -60 -1 -63 4 -4 6 -15 10 -26 10 -10 0 -19 4 -19 9 0 5 -9 13 -21 16 -11 4
-18 9 -16 11 13 13 187 65 231 69 28 3 74 8 101 11 28 3 69 7 91 9 56 5 86 24
81 52 -9 48 72 88 333 166 101 31 203 56 245 61 28 4 241 83 293 109 24 11 52
55 52 80 0 7 -10 23 -23 35 -40 38 -93 52 -210 58 l-112 5 -33 34 c-28 30 -49
39 -78 34 -3 -1 -18 11 -33 25 -24 23 -32 25 -116 23 -50 -1 -109 4 -133 11
-37 11 -42 16 -40 39 2 18 -5 31 -25 47 -26 19 -40 21 -190 21 l-162 0 -5 34
c-4 31 -9 36 -43 43 -31 7 -44 4 -76 -17 -32 -22 -53 -26 -132 -30 -52 -3
-120 -10 -152 -16 -31 -5 -61 -7 -66 -4 -5 3 -33 5 -63 5 -29 -1 -64 -1 -78
-1 -14 0 -52 1 -85 2 -40 1 -81 -5 -122 -20 -72 -24 -117 -27 -154 -7 -14 7
-37 16 -50 19 -14 4 -36 16 -50 28 -22 19 -31 20 -97 14 -40 -4 -98 -16 -128
-26 -31 -11 -91 -22 -134 -26 -76 -6 -78 -5 -95 21 -21 31 -64 56 -97 56 -13
0 -71 -21 -128 -47 -106 -47 -133 -52 -265 -51 -33 0 -113 0 -177 1 -86 0
-118 3 -122 13 -3 7 -23 18 -45 24 -33 9 -44 7 -73 -9 -24 -14 -61 -21 -133
-26 -110 -7 -189 -21 -220 -40 -11 -7 -42 -18 -70 -24 -27 -7 -75 -27 -106
-46 -58 -36 -110 -48 -220 -54 -10 -1 -39 -16 -67 -34 -74 -50 -85 -53 -62
-14 48 79 9 163 -77 166 -24 0 -64 6 -90 12 -71 17 -80 17 -136 -2 -49 -16
-53 -16 -87 0 -19 10 -47 21 -61 25 -16 3 -35 20 -47 40 -16 28 -29 36 -69 44
-45 10 -123 9 -168 -1 -64 -15 -104 -29 -133 -47 -18 -11 -44 -20 -58 -20 -13
0 -41 -7 -62 -16 -20 -9 -53 -17 -74 -19 -20 -1 -67 -12 -105 -24 -37 -11 -84
-23 -103 -26 -54 -9 -157 -42 -183 -60 -22 -14 -27 -14 -53 0 -16 8 -39 15
-51 15 -12 0 -40 9 -62 21 -50 26 -86 21 -143 -20 -24 -17 -63 -33 -88 -37
-25 -4 -52 -10 -61 -15 -33 -17 -59 -20 -274 -30 -25 -2 -51 4 -67 15 -21 14
-49 18 -140 18 -249 1 -281 -2 -326 -23 -41 -20 -44 -20 -62 -4 -25 23 -138
32 -171 14 -29 -15 -126 -39 -219 -53 -19 -3 -50 -10 -67 -15 -22 -6 -35 -6
-39 1 -7 11 -181 4 -192 -7 -3 -3 -16 2 -29 10 -31 21 -86 22 -116 2 -18 -12
-33 -13 -61 -7 -49 11 -93 -3 -139 -43 -24 -23 -59 -40 -101 -51 -77 -21 -121
-60 -111 -98 6 -23 2 -26 -68 -47 -79 -23 -140 -34 -287 -51 -52 -6 -108 -18
-125 -26 -44 -23 -105 -44 -145 -50 -19 -3 -51 -13 -71 -21 -32 -12 -39 -20
-44 -53 -4 -26 -1 -48 9 -68 l15 -29 -75 -5 c-41 -3 -80 -10 -87 -17 -6 -6
-19 -11 -30 -11 -16 0 -17 5 -12 43 6 39 4 44 -32 80 -49 46 -137 79 -207 76
-63 -3 -76 -7 -76 -26 0 -8 -4 -11 -10 -8 -16 10 -46 -12 -59 -44 -9 -21 -21
-31 -46 -35 -25 -5 -38 -15 -49 -38 -18 -35 -21 -68 -6 -68 6 0 10 -4 10 -10
0 -15 -32 -12 -93 7 -44 13 -53 20 -49 35 12 47 -77 110 -121 86 -33 -18 -45
-20 -123 -18 -69 1 -72 0 -78 -25 -7 -28 -13 -29 -118 -6 -39 9 -81 15 -178
27 -83 10 -86 12 -82 49 3 27 9 35 23 35 11 0 37 9 59 20 22 11 56 23 77 26
48 7 102 30 128 52 11 10 33 24 48 32 16 8 35 26 42 40 11 22 12 37 6 85 0 6
-25 36 -53 68 -29 31 -65 69 -79 84 -49 54 -138 118 -201 145 -63 27 -86 48
-51 48 34 0 55 24 57 66 1 21 -2 45 -7 51 -10 14 -10 14 49 18 51 4 99 28 120
60 15 22 15 29 1 62 -12 31 -22 40 -53 47 -33 8 -46 5 -94 -19 -30 -15 -63
-32 -73 -37 -9 -4 -42 -18 -72 -29 -30 -11 -55 -24 -55 -28 0 -4 -25 -34 -55
-67 -61 -66 -82 -112 -66 -143 16 -28 15 -29 -24 -28 -24 1 -43 -7 -61 -24
-23 -21 -25 -29 -20 -71 4 -42 2 -49 -17 -59 -31 -17 -37 -28 -37 -73 l0 -38
-57 4 c-39 4 -67 1 -85 -8 -15 -8 -40 -12 -55 -10 -16 3 -50 8 -78 11 -27 3
-64 10 -82 16 -18 6 -47 8 -65 6 -18 -2 -52 3 -74 11 -39 14 -43 14 -70 -5
-23 -16 -37 -19 -69 -14 -22 4 -66 1 -100 -6 -33 -7 -73 -12 -88 -13 -26 0
-28 2 -22 29 5 26 2 32 -22 44 -38 20 -313 40 -328 25 -4 -4 -11 -37 -15 -75
-9 -66 -8 -69 18 -90 33 -27 24 -28 -88 -7 -47 9 -105 18 -130 19 -25 2 -67
12 -93 24 -46 20 -53 20 -102 7 -30 -8 -56 -12 -59 -9 -2 3 -28 5 -58 5 -30
-1 -59 5 -68 12 -8 8 -52 17 -96 21 -69 6 -83 4 -91 -9 -8 -14 -16 -14 -89 4
-98 23 -137 17 -142 -23 l-3 -26 -134 3 c-113 3 -141 0 -175 -15 -23 -10 -69
-21 -104 -23 -34 -3 -73 -9 -86 -14 -13 -5 -39 -6 -56 -2 -60 14 -81 3 -93
-46 -7 -25 -9 -49 -6 -55 4 -5 -1 -10 -9 -10 -9 -1 -22 -2 -28 -3 -7 -1 -29 3
-48 9 -19 6 -52 8 -72 5 -20 -4 -54 -5 -75 -2 -88 12 -96 9 -105 -26 -5 -20
-15 -32 -26 -32 -20 0 -64 -73 -56 -93 7 -18 35 -30 134 -57 129 -34 221 -32
206 5 -6 18 17 20 60 5 16 -5 61 -11 99 -14 39 -2 75 -5 80 -5 6 -1 9 -20 7
-46 -3 -33 0 -45 9 -46 19 -2 19 -2 134 -23 120 -22 156 -38 70 -31 -234 19
-279 24 -327 34 -20 5 -74 7 -120 5 -309 -11 -280 -14 -418 37 -145 54 -252
95 -295 114 -16 7 -66 28 -110 45 -44 17 -108 45 -143 61 -35 16 -65 29 -67
29 -6 0 -108 47 -260 120 -406 195 -865 482 -1385 868 -177 132 -483 374 -570
452 -19 18 -64 57 -100 88 -76 66 -342 330 -421 417 -54 61 -83 94 -219 255
-40 47 -82 96 -93 110 -213 246 -475 674 -610 991 -42 97 -103 262 -112 299
-2 8 -9 31 -15 50 -35 113 -120 445 -120 468 0 15 -4 32 -9 38 -20 21 -86 416
-106 634 -3 30 -7 75 -10 100 -23 242 -23 686 -1 820 3 14 7 59 10 102 3 42 8
91 10 110 3 18 12 87 21 153 17 123 65 367 91 465 14 48 57 216 68 262 14 53
81 273 101 328 95 263 260 578 454 870 82 122 269 360 366 464 6 6 21 25 33
41 74 96 396 429 542 560 298 269 895 729 1035 798 52 26 115 27 115 3 0 -7
14 -22 30 -35 22 -16 29 -28 25 -41 -7 -22 28 -44 88 -55 47 -9 51 -17 26 -49
-15 -19 -30 -26 -54 -26 -52 0 -80 -15 -99 -53 -19 -41 -13 -63 23 -81 28 -15
89 -12 105 4 17 17 24 11 42 -40 10 -27 25 -51 33 -52 19 -4 -112 -55 -184
-72 -27 -6 -104 -29 -170 -51 -116 -38 -175 -66 -175 -86 0 -5 15 -25 33 -44
32 -34 32 -34 87 -24 30 6 97 23 148 40 51 16 105 29 120 29 40 0 122 24 162
48 19 11 55 26 80 32 25 7 57 18 72 26 24 13 31 12 62 -7 35 -20 37 -20 88 -3
106 34 159 76 146 115 -5 16 40 69 58 69 7 0 18 -9 24 -19 11 -22 32 -21 110
4 25 8 65 18 90 21 51 7 75 18 107 46 l22 20 52 -26 c35 -17 69 -26 101 -26
64 0 111 -21 134 -59 20 -35 75 -64 115 -63 24 1 27 -4 31 -34 2 -20 -1 -39
-8 -45 -8 -6 -9 -21 -5 -42 7 -29 4 -97 -4 -105 -2 -2 -9 9 -17 25 -15 32 -40
39 -95 24 -51 -14 -73 -52 -73 -125 0 -47 4 -59 27 -81 15 -14 35 -25 44 -25
17 0 71 52 67 66 -3 11 24 54 34 54 3 0 9 -14 13 -31 8 -37 -11 -89 -34 -89
-27 0 -42 -15 -55 -55 -15 -41 -15 -40 38 -98 55 -61 58 -69 42 -114 -31 -87
-101 -202 -170 -278 -20 -22 -40 -56 -46 -75 -5 -19 -24 -58 -41 -85 -18 -28
-36 -72 -40 -100 -5 -27 -10 -59 -12 -70 -2 -11 1 -36 8 -55 7 -19 13 -63 14
-98 1 -34 8 -80 16 -101 7 -22 11 -42 8 -44 -3 -3 0 -21 6 -40 10 -29 31 -46
59 -47 10 0 61 -32 72 -44 7 -9 14 -42 16 -74 6 -116 25 -200 50 -223 28 -26
30 -39 9 -39 -16 0 -35 -38 -35 -70 0 -22 56 -90 74 -90 6 -1 22 -10 35 -20
18 -16 22 -26 17 -47 -10 -36 11 -80 56 -121 21 -19 38 -40 38 -47 0 -19 50
-65 71 -65 10 0 34 14 53 31 31 26 35 36 31 65 -4 35 -33 94 -46 94 -4 0 -9 9
-12 20 -5 20 -5 20 18 1 30 -22 86 -92 121 -149 39 -63 46 -108 27 -163 -16
-44 -16 -47 6 -92 12 -26 37 -55 54 -66 18 -11 37 -29 44 -39 6 -11 33 -28 60
-38 26 -10 69 -33 96 -50 26 -18 71 -42 100 -53 28 -10 78 -31 109 -45 82 -36
109 -39 163 -16 42 18 49 19 76 5 16 -9 29 -19 29 -23 0 -5 22 -30 48 -58 43
-45 59 -53 166 -89 112 -38 121 -43 162 -91 36 -42 44 -58 44 -92 0 -32 6 -47
28 -67 15 -14 34 -24 42 -23 22 4 58 -25 65 -52 9 -37 50 -64 75 -50 14 7 20
7 20 0 0 -5 6 -10 14 -10 7 0 19 -7 26 -15 6 -8 31 -25 55 -39 41 -24 45 -25
78 -11 29 12 35 20 41 55 l6 41 33 -63 c30 -59 32 -69 31 -152 -2 -92 -3 -95
-58 -145 -16 -14 -26 -34 -26 -50 0 -20 -8 -31 -34 -45 -28 -15 -40 -33 -72
-109 -40 -98 -46 -156 -19 -210 13 -25 12 -30 -5 -47 -37 -37 -44 -87 -21
-169 14 -50 28 -79 43 -90 31 -21 68 -62 68 -74 0 -6 6 -18 14 -26 8 -9 40
-68 71 -131 32 -63 76 -146 98 -184 22 -37 41 -75 42 -85 3 -36 46 -98 92
-132 64 -47 150 -102 193 -124 19 -9 49 -31 66 -49 16 -17 38 -35 47 -41 32
-20 46 -143 46 -425 1 -146 1 -281 0 -300 -2 -60 17 -204 30 -228 15 -28 17
-88 6 -207 -4 -49 -9 -103 -10 -120 0 -16 -7 -40 -13 -53 -11 -19 -9 -31 14
-85 14 -34 27 -87 29 -117 2 -30 6 -65 9 -77 2 -11 8 -43 12 -70 11 -81 13
-85 33 -107 13 -14 17 -26 11 -36 -5 -9 -4 -36 1 -62 7 -33 7 -53 -1 -68 -13
-24 -6 -53 21 -92 12 -16 19 -43 19 -72 0 -48 46 -157 85 -204 11 -13 20 -27
21 -30 4 -38 68 -112 95 -112 6 0 8 -4 4 -10 -17 -28 201 -147 340 -185 103
-28 114 -29 152 -13 15 6 45 13 66 13 39 2 74 26 87 60 10 27 -28 84 -60 91
-94 21 -199 94 -192 135 2 10 -6 23 -17 29 -35 18 -44 46 -24 76 9 15 18 41
19 58 2 16 9 35 17 41 40 30 52 112 21 147 -11 11 -38 29 -61 39 -40 17 -58
39 -31 39 7 0 24 11 38 25 24 23 27 32 23 81 -4 49 -2 56 16 61 23 6 32 28 35
82 1 23 11 47 25 62 19 20 22 32 18 72 -2 30 0 47 7 48 89 5 179 38 206 74 22
29 51 106 52 138 1 15 -8 41 -20 56 l-21 29 52 -2 c43 -1 59 4 90 28 20 16 37
32 37 36 0 4 13 27 30 51 16 24 30 51 30 61 0 9 20 41 44 71 25 29 56 81 69
115 14 33 38 78 54 98 26 35 28 43 28 138 0 107 6 126 56 164 13 10 39 24 58
31 19 6 42 17 50 25 23 19 90 39 128 38 26 -1 42 7 75 41 62 61 70 72 75 113
3 21 18 58 34 84 18 29 29 61 29 83 0 20 5 48 10 62 16 42 23 111 24 231 1
103 3 113 27 145 14 19 38 57 52 84 14 28 41 69 61 90 54 59 82 112 96 183 11
56 11 73 -5 143 -20 86 -46 124 -89 134 -14 3 -37 7 -49 10 -13 2 -41 21 -63
41 -50 47 -123 99 -155 109 -13 5 -42 7 -64 6 -22 -1 -71 7 -109 18 -37 11
-72 19 -77 18 -5 -1 -19 10 -31 26 -25 30 -184 100 -227 99 -14 0 -33 7 -43
15 -9 8 -25 16 -35 17 -14 2 -18 13 -19 50 -1 32 -8 54 -21 69 -11 12 -30 54
-41 92 -19 61 -30 78 -84 131 -51 50 -76 65 -132 84 -74 24 -104 28 -152 16
-26 -6 -37 -2 -62 19 -17 15 -41 43 -52 64 -12 20 -45 52 -73 71 -67 45 -68
47 -63 101 4 39 1 51 -22 79 -25 30 -30 31 -62 23 -19 -6 -68 -11 -109 -12
-55 -2 -80 -7 -98 -21 -24 -19 -25 -19 -62 0 -25 14 -50 18 -79 16 -35 -4 -45
-1 -61 20 -10 13 -22 24 -26 24 -4 0 -19 8 -33 19 -15 10 -46 22 -69 26 -24 4
-43 10 -43 15 0 4 -14 13 -30 19 -36 12 -68 1 -114 -41 -17 -16 -35 -28 -41
-29 -5 0 -17 -2 -25 -4 -8 -2 -31 -8 -51 -13 -62 -16 -109 -62 -109 -107 0 -8
-12 -25 -27 -39 l-27 -25 -28 24 c-18 15 -47 26 -81 30 -47 6 -60 3 -106 -21
l-53 -29 -35 40 c-47 53 -56 79 -42 124 6 20 13 54 15 76 3 22 11 56 18 75 16
43 10 109 -12 134 -51 56 -127 76 -233 61 l-46 -7 7 47 c4 26 12 50 17 54 16
10 43 68 47 100 2 17 15 44 30 61 37 44 39 103 4 133 -44 37 -233 13 -284 -38
-13 -13 -28 -44 -35 -69 -6 -25 -17 -50 -24 -56 -7 -5 -47 -19 -89 -30 -73
-18 -78 -18 -112 -2 -26 12 -42 30 -58 67 -32 68 -49 156 -38 186 5 13 10 27
10 32 2 26 17 78 34 111 11 21 22 58 24 83 8 77 26 106 90 141 32 18 71 42 85
53 37 29 140 27 197 -4 25 -14 44 -17 73 -12 21 4 40 6 41 4 10 -10 46 26 51
50 6 30 7 30 74 30 56 -1 72 -5 96 -25 27 -23 48 -25 89 -9 21 8 41 -24 27
-46 -39 -62 59 -283 131 -293 37 -5 76 22 96 68 22 51 21 49 34 41 7 -4 4 -15
-10 -32 -36 -46 -19 -120 38 -158 l37 -25 27 28 c30 29 35 56 23 114 -6 34 -5
39 18 47 36 14 48 41 37 81 -17 58 -33 67 -110 66 -40 -1 -71 3 -71 9 -1 6 -3
26 -4 45 -1 19 -7 58 -13 86 -6 28 -8 62 -5 75 8 33 48 75 110 115 29 18 61
42 73 54 11 11 26 20 33 20 6 0 30 14 51 30 22 17 47 30 57 30 10 0 35 17 57
38 39 36 62 88 62 140 0 24 57 104 126 177 23 24 43 48 45 54 2 6 13 13 24 15
55 11 80 21 96 37 11 11 33 19 49 19 42 0 96 24 110 49 11 22 10 57 -3 77 -10
17 10 30 93 60 l74 26 25 -31 c34 -41 74 -41 138 -2 27 16 96 47 154 69 154
56 173 69 176 117 2 22 5 47 7 56 2 10 -13 25 -44 42 l-47 26 -23 -24 c-13
-14 -26 -21 -30 -16 -3 6 -21 13 -40 16 -52 9 -60 23 -27 47 15 11 27 27 27
35 0 11 6 14 23 9 60 -18 82 -16 108 7 14 12 28 31 32 40 4 10 17 17 31 17
l25 0 -29 -54 c-36 -66 -37 -76 -5 -106 21 -20 36 -23 101 -24 71 -1 78 -4 88
-25 9 -20 15 -22 48 -18 21 3 38 1 38 -3 0 -13 65 -23 95 -16 38 10 78 80 80
143 1 29 -1 53 -6 53 -4 0 -13 17 -20 38 -16 51 -25 60 -66 68 l-34 6 20 22
c12 12 21 32 21 43 0 11 7 37 16 58 26 64 27 100 0 132 -13 15 -26 38 -30 51
-11 33 -45 61 -90 73 -52 14 -66 30 -66 77 0 21 -11 72 -25 113 -14 41 -26 85
-28 98 -1 18 -13 28 -45 42 -41 18 -44 18 -70 2 -15 -10 -40 -30 -57 -46 -41
-39 -78 -57 -95 -47 -10 6 -9 15 7 46 l20 39 -24 43 -24 43 29 -15 c16 -8 59
-20 95 -27 64 -12 67 -11 104 13 22 14 52 29 68 32 42 10 78 59 79 107 1 37 3
39 33 39 38 0 158 69 185 105 17 23 17 26 -2 69 -13 32 -25 46 -39 46 -11 0
-33 14 -49 30 -17 17 -38 30 -46 30 -13 0 -14 3 -5 18 17 28 3 85 -29 114 -15
15 -46 31 -68 37 -23 6 -47 18 -54 25 -6 8 -26 18 -43 21 -59 12 -64 15 -75
53 -7 23 -22 44 -36 52 -19 9 -23 17 -17 29 5 9 9 21 10 26 0 6 17 14 38 18
92 19 114 28 123 52 7 17 20 26 47 31 55 10 116 33 124 46 5 8 10 2 14 -15 4
-15 12 -27 17 -27 6 0 8 -11 4 -24 -5 -19 1 -28 36 -52 l41 -29 166 0 c91 -1
175 -4 187 -8 11 -4 32 -31 47 -60 25 -51 25 -52 6 -73 -11 -12 -19 -35 -19
-57 0 -20 -7 -51 -16 -70 -15 -30 -15 -36 0 -72 16 -39 16 -39 -14 -70 -17
-17 -28 -34 -25 -37 3 -3 0 -18 -6 -34 -18 -42 -21 -85 -7 -101 6 -7 10 -37 9
-66 -1 -43 4 -61 28 -100 26 -39 34 -61 40 -108 1 -3 11 -18 24 -32 26 -31 58
-44 110 -45 25 -1 49 -10 68 -27 37 -30 100 -34 141 -7 36 22 105 116 113 153
4 16 15 31 27 35 31 9 94 70 108 103 14 34 36 44 145 66 104 20 178 50 240 97
35 25 65 39 95 43 154 18 192 28 329 78 77 28 115 48 119 60 2 9 9 17 14 17 5
0 20 12 33 28 21 22 24 35 21 75 -4 46 -4 48 32 63 20 8 44 23 53 33 21 22 69
122 69 144 0 8 5 17 10 19 15 5 40 79 34 103 -9 38 78 77 244 110 25 5 36 15
47 42 21 49 19 60 -11 79 -20 13 -48 17 -127 17 -56 -1 -121 -3 -144 -6 -42
-5 -48 -1 -44 30 2 12 -10 15 -148 37 -89 14 -453 15 -626 2 -116 -8 -220 -25
-258 -41 -21 -9 -40 -10 -61 -4 -17 5 -51 6 -75 3 -80 -12 -380 -10 -385 3 -9
23 -132 32 -451 33 -219 0 -344 -7 -361 -21 -6 -5 -29 -6 -52 -3 -22 3 -65 1
-94 -5 -29 -6 -90 -13 -135 -16 -82 -5 -126 -16 -136 -32 -3 -5 -25 -8 -49 -7
-42 1 -154 -22 -210 -44 -32 -13 -62 -56 -54 -77 4 -13 2 -13 -14 -5 -27 14
-100 12 -130 -5 -22 -12 -27 -11 -42 2 -9 8 -50 20 -91 26 -118 17 -157 -10
-138 -94 9 -39 4 -53 -16 -55 -32 -2 -40 -6 -67 -30 l-29 -25 17 -41 c9 -23
15 -42 13 -43 -1 0 -24 -6 -52 -13 -27 -7 -55 -19 -61 -27 -6 -8 -25 -17 -42
-20 -48 -8 -40 17 12 38 24 10 51 26 59 35 14 15 13 22 -8 65 -20 42 -21 50
-8 62 8 8 19 15 24 15 5 0 9 24 9 54 0 52 -1 55 -29 61 -38 8 -98 -3 -136 -25
-16 -10 -42 -20 -57 -24 -29 -7 -29 -7 -31 -89 -1 -15 -6 -26 -12 -23 -50 22
-67 36 -79 67 l-14 35 -64 -4 c-66 -3 -180 -29 -283 -62 l-60 -20 3 -47 4 -48
-111 0 c-108 0 -111 -1 -143 -30 -18 -17 -74 -50 -125 -75 l-92 -45 2 -48 c1
-26 8 -51 15 -56 9 -5 5 -11 -13 -19 -21 -10 -27 -9 -32 4 -4 12 -14 14 -40 9
-25 -4 -40 -1 -59 14 -28 22 -53 20 -103 -5 -16 -9 -29 -10 -37 -3 -12 10 -62
5 -129 -13 -22 -6 -66 -12 -97 -13 -31 -1 -87 -11 -123 -20 -53 -15 -71 -16
-86 -7 -39 25 -177 54 -269 58 -52 2 -111 8 -130 14 -19 5 -56 10 -82 10 -25
0 -48 4 -50 9 -1 5 -21 11 -43 12 -22 2 -53 10 -69 18 -25 12 -38 12 -85 1
-31 -7 -72 -14 -91 -15 -88 -7 -302 -57 -326 -76 -23 -18 -101 -40 -159 -45
-70 -5 -134 -30 -136 -53 -1 -9 -2 -32 -2 -52 l-2 -37 -70 -12 c-38 -7 -102
-20 -141 -30 l-71 -16 -11 26 c-14 32 -50 53 -93 55 -30 1 -59 26 -59 50 0 20
104 73 157 79 88 11 112 23 111 57 -1 17 3 34 8 38 9 8 177 98 279 149 28 13
66 33 85 42 298 152 1014 428 1410 544 l85 25 6116 0 6116 1 104 -29z m-7451
-191 c0 -16 3 -31 8 -31 4 -1 57 -3 117 -5 203 -7 210 -8 213 -25 2 -14 9 -15
40 -8 62 14 68 11 38 -19 -14 -16 -31 -45 -37 -64 -7 -28 -16 -37 -38 -41 -26
-6 -28 -9 -30 -61 -1 -33 3 -56 9 -56 18 0 11 -18 -10 -23 -12 -3 -20 -14 -20
-26 0 -21 -12 -25 -67 -23 -16 1 -25 -6 -29 -23 -5 -19 -13 -25 -34 -25 -37 0
-59 -22 -53 -53 4 -20 -3 -29 -47 -56 -48 -29 -51 -34 -48 -67 3 -36 2 -37
-49 -55 -51 -17 -99 -25 -194 -33 -52 -5 -96 -24 -150 -67 -43 -34 -120 -65
-180 -74 -132 -19 -203 -55 -237 -120 -11 -22 -38 -47 -72 -67 -47 -28 -56
-39 -67 -78 -17 -59 -66 -119 -86 -105 -8 6 -26 18 -40 28 -16 12 -43 19 -71
19 -44 0 -46 1 -56 36 -5 21 -21 53 -34 73 -21 31 -25 46 -21 93 2 30 0 58 -6
61 -5 4 -7 22 -5 41 5 41 37 71 84 80 39 8 112 72 112 99 0 10 -7 27 -17 37
-13 15 -14 24 -6 52 10 32 9 34 -33 59 -31 19 -42 31 -37 42 9 26 -28 137 -59
175 -16 19 -33 40 -38 47 -17 21 -92 36 -182 37 -84 1 -88 2 -88 24 0 12 3 22
8 23 104 7 165 28 172 59 5 22 14 27 80 39 41 7 91 21 110 29 27 13 78 16 237
18 111 1 206 5 211 8 6 3 54 -1 108 -9 100 -16 113 -14 114 22 0 15 66 26 152
25 37 0 80 3 96 7 15 5 73 9 130 10 l102 2 0 -31z m-1550 -12 c-30 -11 -68
-21 -85 -23 -16 -2 -52 -7 -80 -11 -27 -4 -67 -8 -88 -8 -30 -1 -40 -6 -50
-26 -12 -25 -22 -29 -187 -75 -25 -7 -58 -24 -74 -39 -25 -23 -36 -27 -71 -22
-22 3 -43 5 -47 5 -23 2 -3 22 30 31 45 12 57 21 57 40 0 11 13 15 53 16 29 1
68 5 88 8 35 7 35 7 31 54 l-4 48 32 -4 c18 -2 43 2 56 9 24 12 332 29 374 20
13 -3 2 -10 -35 -23z m-813 -74 c7 -22 -109 -35 -122 -14 -3 6 0 10 7 11 22 1
50 7 54 12 9 9 58 1 61 -9z m7937 -179 c8 -8 25 -15 38 -15 13 0 39 -5 58 -11
19 -6 85 -12 145 -14 123 -2 167 -13 142 -34 -14 -11 -13 -18 5 -61 11 -27 23
-49 27 -48 3 1 33 -2 66 -6 33 -5 73 -10 88 -11 15 -1 33 -7 39 -13 7 -7 17
-8 27 -2 26 14 206 7 225 -9 10 -8 50 -15 104 -18 48 -2 97 -5 109 -7 15 -2
25 3 28 15 14 43 197 13 259 -42 39 -33 103 -62 188 -84 58 -16 61 -16 75 4
14 21 14 21 148 20 68 -1 78 -1 139 1 42 2 44 3 51 37 l6 34 67 -6 c99 -8 170
-14 232 -19 30 -3 71 -12 90 -20 103 -43 203 -59 360 -60 146 -1 158 -3 199
-26 24 -14 55 -31 70 -39 19 -11 75 -15 216 -17 174 -2 197 -5 262 -27 59 -21
79 -24 108 -16 28 8 35 15 35 36 l0 26 98 -6 c93 -6 138 -11 192 -23 14 -3 36
-8 50 -11 30 -5 340 -208 340 -222 0 -5 -4 -21 -9 -34 -9 -24 -7 -26 47 -48
84 -33 90 -42 42 -63 -28 -12 -47 -30 -60 -57 -18 -35 -22 -38 -46 -29 -37 14
-61 12 -91 -7 -15 -10 -39 -19 -53 -20 -14 -1 -45 -4 -69 -6 -39 -3 -46 -7
-67 -45 -21 -38 -22 -44 -9 -69 7 -16 19 -41 25 -58 12 -34 65 -75 97 -75 33
0 86 -49 79 -73 -3 -12 4 -32 15 -48 21 -29 35 -144 19 -154 -10 -6 -258 203
-287 243 -27 36 -29 60 -8 88 9 12 14 43 15 82 0 35 6 75 13 90 21 42 12 79
-33 132 -64 77 -121 82 -154 15 -11 -22 -21 -41 -22 -43 -1 -2 -22 7 -48 20
-42 20 -51 21 -103 10 -78 -16 -102 -46 -103 -125 l0 -58 -28 21 c-38 28 -128
38 -168 18 -21 -11 -50 -14 -104 -11 -99 6 -218 -10 -241 -34 -10 -10 -40 -84
-66 -164 l-48 -147 24 -36 c18 -28 30 -36 54 -36 17 0 49 -11 71 -24 59 -34
108 -42 139 -21 25 16 28 15 98 -21 70 -37 109 -78 109 -115 0 -9 17 -40 39
-70 73 -102 80 -123 76 -234 -4 -122 -35 -235 -65 -235 -10 0 -22 5 -25 10
-12 20 -87 1 -109 -28 -12 -15 -30 -36 -41 -47 -15 -15 -20 -34 -21 -78 -1
-47 -5 -61 -22 -72 -29 -21 -38 -70 -17 -101 17 -27 13 -44 -11 -44 -9 0 -14
8 -13 18 6 66 -15 95 -93 122 -52 18 -60 18 -99 5 -51 -18 -49 -18 -49 1 0 8
-14 28 -31 43 -25 23 -37 28 -67 24 -41 -6 -92 -41 -111 -76 -7 -13 -28 -31
-46 -42 -76 -40 -55 -137 40 -182 17 -7 45 -25 64 -38 38 -28 56 -30 98 -14
l28 10 -21 -23 c-66 -72 -57 -142 23 -182 17 -8 40 -30 51 -48 12 -18 48 -60
81 -92 58 -57 60 -62 54 -98 -5 -34 -2 -42 26 -69 37 -35 46 -63 26 -79 -8 -7
-26 -51 -40 -98 -14 -48 -33 -104 -42 -125 -20 -46 -114 -135 -151 -143 -15
-3 -42 -12 -60 -20 -18 -8 -39 -14 -47 -14 -8 0 -31 -11 -51 -25 -20 -13 -52
-27 -73 -31 -20 -4 -44 -13 -53 -22 -16 -13 -18 -13 -23 0 -7 19 -76 34 -129
29 -8 0 -39 -21 -69 -46 -68 -55 -113 -137 -104 -191 6 -35 121 -195 162 -223
70 -50 113 -132 122 -235 5 -53 4 -54 -38 -87 -23 -19 -57 -49 -74 -66 -34
-36 -45 -40 -45 -19 0 16 -69 66 -92 66 -9 0 -30 24 -48 54 -24 42 -42 60 -79
79 -27 13 -61 36 -75 51 -34 33 -67 33 -102 1 -15 -14 -29 -25 -31 -25 -9 0
-53 109 -63 157 -16 76 -47 116 -95 124 -36 6 -44 3 -78 -27 -20 -19 -39 -34
-41 -34 -3 0 -3 15 -2 33 6 65 -59 185 -144 267 -26 25 -50 59 -54 75 -18 70
-64 119 -123 129 -26 5 -35 1 -55 -22 -22 -28 -85 -53 -168 -66 -26 -5 -41
-15 -55 -39 -11 -17 -18 -40 -17 -49 2 -11 -14 -29 -45 -49 -27 -18 -63 -54
-81 -80 -18 -26 -55 -68 -83 -93 -27 -25 -49 -52 -49 -59 0 -8 -17 -22 -37
-30 -46 -18 -83 -52 -84 -75 0 -9 -2 -25 -4 -35 -2 -11 3 -51 11 -89 11 -53
12 -78 4 -102 -6 -18 -9 -54 -8 -80 0 -26 -3 -51 -9 -54 -6 -4 -20 -25 -31
-48 -35 -68 -47 -71 -66 -17 -30 82 -50 126 -78 173 -15 25 -37 78 -48 118
-11 40 -36 97 -56 126 -34 51 -84 199 -99 291 -18 113 -26 134 -57 150 -39 19
-67 19 -92 0 -25 -19 -26 -19 -58 9 -19 16 -28 33 -28 54 0 26 -10 40 -61 82
-33 27 -66 50 -72 50 -7 0 -20 12 -29 28 -27 44 -82 92 -108 93 -27 1 -179 -9
-249 -16 -26 -3 -94 4 -159 17 -109 21 -114 23 -126 52 -21 50 -52 71 -101 70
-24 0 -56 -9 -70 -18 -34 -22 -61 -16 -126 29 -27 19 -57 36 -67 40 -17 5 -82
96 -82 115 0 29 -96 63 -152 53 -31 -4 -45 -14 -67 -47 -26 -38 -27 -44 -16
-76 25 -72 65 -137 104 -173 23 -20 41 -43 41 -49 0 -7 12 -36 27 -65 20 -41
31 -53 50 -53 14 0 23 -6 23 -15 0 -8 18 -26 39 -39 32 -21 51 -25 103 -24 79
1 100 9 138 50 29 32 31 32 42 13 23 -39 68 -73 112 -84 30 -7 51 -20 65 -40
l21 -29 -22 -36 c-13 -19 -30 -38 -39 -41 -17 -6 -36 -41 -44 -83 -2 -13 -16
-35 -30 -49 -14 -14 -25 -29 -25 -33 0 -5 -14 -13 -31 -19 -17 -6 -33 -20 -36
-31 -3 -11 -12 -21 -19 -21 -8 -1 -17 -3 -21 -4 -5 -2 -18 -6 -31 -10 -60 -20
-108 -52 -121 -82 -11 -25 -26 -36 -75 -54 -34 -12 -74 -33 -89 -46 -16 -13
-34 -23 -41 -23 -6 0 -29 -9 -51 -20 -36 -18 -68 -27 -106 -29 -8 -1 -24 -9
-35 -19 -42 -40 -51 -35 -72 36 -11 37 -22 93 -25 125 -6 60 -27 104 -83 171
-18 21 -36 52 -40 69 -4 18 -32 56 -70 94 -35 36 -64 72 -65 81 -3 55 -10 84
-29 123 -21 41 -74 99 -91 99 -4 0 -10 11 -13 24 -3 13 -22 46 -41 74 -19 29
-35 54 -35 57 0 2 -21 32 -46 65 -33 44 -45 68 -42 85 7 35 -2 42 -58 50 -48
6 -52 4 -57 -17 -6 -23 -7 -23 -20 -3 -26 38 -28 55 -6 55 61 0 100 50 115
149 3 20 15 63 26 96 26 76 26 77 17 139 -6 49 -58 144 -71 130 -3 -2 -16 0
-29 4 -26 10 -73 -2 -100 -24 -22 -19 -43 -17 -81 6 -40 24 -95 26 -127 4 -22
-16 -25 -16 -51 0 -16 9 -40 16 -54 16 -14 0 -26 4 -26 9 0 4 -10 21 -22 36
-13 16 -24 47 -26 72 l-3 43 35 0 c22 0 45 9 63 24 21 17 40 23 76 23 29 0 54
6 65 16 56 51 144 59 228 22 84 -37 132 -48 213 -46 112 3 171 43 173 119 1
42 -44 100 -99 127 -22 11 -57 33 -77 48 -20 15 -52 35 -72 43 -27 11 -34 19
-29 32 4 9 10 26 13 37 2 11 10 27 16 35 41 55 39 74 -10 95 -37 15 -75 12
-134 -9 -19 -8 -53 -19 -75 -26 -22 -7 -47 -21 -55 -31 -14 -17 -18 -17 -65
-3 -27 9 -62 22 -77 30 -58 31 -110 2 -152 -82 -16 -33 -38 -65 -48 -72 -10
-7 -18 -23 -18 -35 0 -12 -9 -42 -20 -66 -23 -49 -25 -89 -8 -126 15 -34 -7
-53 -34 -28 -26 23 -136 12 -159 -16 -10 -12 -31 -22 -49 -23 -52 -4 -62 -56
-22 -118 9 -14 18 -34 19 -44 2 -11 9 -26 15 -33 7 -9 8 -17 1 -24 -7 -7 -14
1 -23 23 -8 18 -39 69 -70 113 -37 52 -57 91 -58 110 -2 74 -22 95 -158 165
-61 31 -92 53 -103 74 -27 49 -65 87 -89 89 -13 1 -28 9 -33 19 -12 23 -76 24
-107 2 -67 -47 -61 -162 12 -209 25 -17 87 -103 64 -90 -53 31 -109 84 -122
114 -17 45 -39 65 -93 86 -52 21 -75 16 -145 -30 -53 -36 -58 -37 -138 -22 -3
1 -26 -2 -52 -7 -57 -9 -88 -38 -102 -97 -10 -39 -15 -45 -50 -54 -67 -19
-136 -116 -136 -191 0 -27 -9 -42 -47 -79 -44 -42 -51 -45 -101 -45 -29 0 -67
-7 -83 -16 -29 -14 -32 -14 -48 5 -22 25 -57 39 -93 37 -20 -1 -28 3 -28 15 0
9 -9 28 -21 43 -19 24 -19 29 -6 49 20 31 40 122 32 147 -9 27 -9 89 -1 97 7
7 124 5 158 -3 30 -7 185 -5 213 2 37 9 65 73 71 164 6 80 5 83 -27 131 -19
27 -37 49 -41 49 -5 0 -8 6 -8 13 0 24 43 54 123 87 58 25 82 41 97 66 13 20
32 35 51 39 43 10 84 48 103 98 l16 44 80 17 c44 9 84 15 89 11 5 -3 21 8 34
25 30 35 46 37 78 11 21 -17 28 -17 66 -6 37 11 46 11 65 -4 33 -23 62 -20
155 17 71 28 86 30 110 20 48 -20 74 -18 112 8 19 13 42 24 49 24 20 0 53 80
41 101 -5 10 -9 28 -9 40 0 21 1 21 18 6 28 -26 84 -22 109 7 26 30 35 87 18
120 l-13 25 71 -5 c65 -5 76 -3 107 18 28 19 35 31 36 58 1 57 -6 68 -51 86
-47 17 -117 14 -198 -9 -23 -7 -49 -12 -57 -12 -32 2 -68 28 -73 54 -3 14 -9
38 -12 53 -6 24 -1 31 56 72 89 64 87 62 95 101 5 27 2 41 -11 55 -27 30 -97
53 -141 46 -22 -3 -44 -5 -51 -6 -25 0 -81 -60 -87 -93 -5 -27 -18 -40 -65
-71 -67 -43 -83 -62 -99 -125 -13 -53 -3 -83 41 -129 29 -30 30 -33 12 -38
-41 -11 -61 -58 -64 -156 -1 -10 -8 -18 -16 -18 -9 0 -27 -7 -41 -16 -13 -9
-26 -15 -28 -13 -17 22 -67 103 -85 139 -37 73 -66 98 -111 96 -28 -2 -48 -10
-67 -28 -54 -51 -113 -56 -127 -11 -6 21 -20 111 -21 133 0 9 32 31 81 55 45
22 96 51 115 64 39 28 122 114 176 184 41 53 210 170 259 181 16 3 53 8 81 10
30 3 65 13 80 24 53 37 243 35 243 -3 0 -26 58 -57 98 -53 20 3 51 -1 68 -8
17 -7 58 -16 90 -19 32 -3 109 -22 169 -43 90 -30 104 -38 78 -40 -18 -2 -75
6 -128 17 -143 32 -150 30 -159 -42 -6 -46 -6 -47 28 -63 32 -16 56 -49 56
-78 0 -21 33 -45 93 -65 l56 -20 38 28 c27 20 45 26 58 21 31 -11 78 -3 92 16
7 10 13 30 13 45 0 38 24 55 58 43 27 -10 83 4 95 24 3 4 31 7 63 5 53 -2 60
1 88 31 20 21 57 42 106 60 67 24 76 26 86 11 12 -16 72 -24 91 -12 6 4 28 9
49 12 22 3 56 8 76 11 20 3 45 1 56 -5 30 -16 86 4 102 37 8 15 15 28 16 30 3
5 125 -28 217 -59 79 -27 91 -29 123 -17 50 18 60 40 37 85 -13 25 -34 45 -73
65 -81 43 -90 53 -77 89 9 23 17 29 43 29 27 0 32 -5 43 -38 8 -23 24 -44 42
-55 16 -9 37 -31 47 -48 25 -46 72 -99 88 -99 17 0 17 0 -1 -44 -15 -34 -14
-39 7 -76 19 -33 28 -40 55 -40 74 0 145 78 136 150 -5 41 -76 130 -104 130
-22 0 -24 18 -7 55 15 32 47 41 101 25 86 -24 81 -25 104 26 16 33 19 52 12
60 -7 9 -2 12 23 12 84 -2 87 0 98 41 11 42 34 56 105 65 22 2 54 9 70 14 17
5 39 7 50 5 41 -7 104 -4 123 6 12 6 37 11 56 11 20 0 36 5 36 10 0 18 48 60
69 60 11 0 26 -7 35 -15z m-8204 -45 c0 -5 -7 -7 -15 -4 -8 4 -15 8 -15 10 0
2 7 4 15 4 8 0 15 -4 15 -10z m-1180 -40 c0 -5 -7 -7 -15 -4 -8 4 -15 8 -15
10 0 2 7 4 15 4 8 0 15 -4 15 -10z m7510 -45 c-36 -59 -52 -94 -45 -105 8 -13
-5 -13 -25 0 -13 8 -12 11 4 23 11 8 17 21 14 29 -4 8 2 20 13 26 10 7 19 21
19 31 0 11 8 22 18 24 9 3 18 5 20 6 2 0 -6 -15 -18 -34z m-7407 -4 c4 -1 7
-5 7 -10 0 -9 -76 2 -87 13 -5 5 15 4 80 -3z m-389 -40 c-15 -14 -54 -23 -54
-13 0 11 13 17 43 19 11 1 16 -2 11 -6z m966 -40 c-8 -5 -26 -12 -40 -16 -22
-7 -23 -6 -11 9 7 9 25 16 40 16 19 -1 22 -3 11 -9z m747 -46 c25 -44 41 -47
131 -20 53 16 91 5 136 -40 19 -19 34 -25 48 -22 13 4 32 -2 49 -14 15 -10 38
-19 51 -19 20 -1 21 -2 7 -13 -9 -7 -19 -34 -22 -60 l-6 -48 55 -25 c30 -13
60 -24 68 -24 17 0 49 -36 42 -48 -3 -5 -15 -12 -26 -15 -14 -4 -25 3 -37 23
-17 29 -42 43 -78 43 -57 -1 -69 -5 -95 -33 -40 -43 -33 -92 21 -141 22 -19
37 -38 33 -42 -4 -3 -29 6 -57 20 l-51 26 -36 -42 -36 -41 -41 20 c-28 13 -40
25 -39 37 2 10 -8 25 -21 34 l-25 17 24 22 c12 12 46 37 75 55 57 37 73 60 73
102 0 32 -22 61 -65 88 -16 10 -43 33 -58 51 -34 41 -108 67 -147 52 -58 -23
-340 3 -340 30 0 11 85 62 103 62 9 0 37 -10 61 -22 43 -21 45 -21 72 -3 31
20 72 34 94 32 8 -1 25 -20 37 -42z m-934 -26 l31 -27 -31 -16 c-31 -15 -32
-15 -62 13 -38 36 -38 44 -3 69 24 19 27 19 30 4 2 -9 18 -29 35 -43z m-530
39 c2 -8 25 -14 58 -15 103 -3 140 -10 164 -33 22 -21 27 -22 55 -10 17 7 33
11 35 8 3 -3 6 -22 8 -44 l2 -39 -50 3 c-27 1 -74 4 -103 6 -29 2 -67 0 -85
-4 -18 -5 -51 -11 -74 -14 l-43 -5 0 49 c0 53 -8 60 -70 62 -53 2 -43 16 22
31 80 19 76 19 81 5z m984 -14 c-3 -4 -2 -15 3 -25 6 -11 6 -27 1 -41 -5 -15
-5 -31 0 -41 8 -14 6 -15 -12 -9 -29 11 -38 90 -12 110 17 12 31 17 20 6z
m-153 -67 c-13 -7 -20 -20 -18 -32 2 -11 5 -31 6 -45 1 -14 16 -43 34 -66 18
-23 36 -53 40 -67 3 -15 10 -27 15 -27 5 0 9 -4 9 -10 0 -5 -4 -10 -10 -10 -5
0 -31 -15 -57 -34 -67 -47 -107 -66 -141 -66 -37 0 -86 -21 -131 -54 -19 -14
-41 -26 -49 -26 -24 0 -143 -67 -213 -120 -36 -27 -84 -74 -107 -103 l-40 -54
19 -42 c10 -24 19 -58 19 -77 0 -50 42 -88 96 -85 51 2 87 -11 115 -44 26 -29
140 -85 174 -85 22 0 23 -2 14 -32 -43 -147 46 -280 152 -227 59 29 106 94
123 169 8 35 20 66 26 68 32 11 130 69 160 95 46 40 71 97 65 149 -3 22 -7 44
-10 48 -3 4 11 20 30 34 24 18 38 40 45 69 6 23 17 57 26 76 14 31 17 33 47
26 18 -4 58 -9 89 -10 53 -2 61 -6 93 -40 24 -25 34 -43 30 -56 -3 -10 -7 -27
-10 -38 -8 -28 53 -102 95 -116 30 -10 42 -9 84 7 27 11 66 33 85 50 l36 31
17 -57 c11 -37 15 -64 9 -74 -5 -10 -6 -33 -2 -52 7 -43 78 -111 134 -129 20
-7 37 -19 37 -27 0 -8 9 -24 20 -36 11 -12 20 -27 20 -34 0 -18 -65 -53 -120
-65 -27 -6 -70 -24 -97 -42 -45 -29 -53 -31 -128 -28 -218 7 -251 5 -286 -17
-19 -12 -59 -34 -89 -48 -30 -15 -77 -46 -105 -68 -45 -38 -115 -91 -138 -107
-6 -4 -2 -26 8 -53 16 -41 21 -46 48 -46 20 0 51 16 97 50 37 27 92 61 123 74
l55 25 -1 -79 -2 -80 -45 -1 c-66 -1 -83 -6 -101 -27 -18 -23 -89 -57 -162
-79 -59 -17 -127 -81 -142 -133 -10 -33 -13 -35 -80 -47 -44 -8 -75 -19 -83
-30 -7 -10 -21 -18 -30 -18 -9 0 -23 -14 -31 -30 -18 -40 -51 -75 -70 -75 -9
0 -25 -7 -35 -15 -11 -8 -29 -12 -42 -9 -16 4 -25 0 -32 -13 -15 -28 -26 -100
-27 -174 0 -73 -16 -102 -60 -113 -14 -4 -41 -17 -61 -31 -20 -14 -42 -25 -48
-25 -6 0 -31 -18 -56 -40 -25 -22 -48 -40 -52 -40 -3 0 -32 -21 -63 -46 -95
-78 -117 -154 -86 -294 9 -40 15 -170 7 -170 -2 0 -12 23 -22 52 -12 36 -14
56 -7 68 25 39 -19 166 -64 186 -25 11 -65 12 -83 3 -9 -5 -22 -1 -34 9 -13
13 -42 18 -113 20 -133 5 -160 -1 -180 -44 -19 -38 -27 -40 -69 -20 -42 20
-146 29 -193 16 -21 -6 -61 -25 -88 -44 -26 -18 -64 -40 -83 -49 -75 -36 -114
-89 -124 -172 -4 -27 -17 -77 -31 -110 -13 -33 -31 -93 -41 -133 -20 -90 -10
-155 43 -279 35 -81 35 -81 104 -116 l69 -35 103 26 c127 32 168 58 196 122
12 27 21 53 21 58 0 10 53 32 77 32 10 0 11 -5 3 -19 -5 -11 -10 -30 -10 -43
0 -13 -13 -38 -29 -57 -21 -24 -31 -49 -36 -86 -3 -31 -16 -66 -30 -84 -20
-28 -22 -37 -13 -69 6 -20 15 -40 22 -44 6 -4 70 -6 143 -4 161 5 172 0 155
-65 -6 -24 -14 -60 -17 -79 -2 -19 -9 -50 -14 -67 -5 -18 -8 -33 -5 -33 3 0 0
-8 -5 -18 -6 -11 -6 -24 -1 -32 5 -9 4 -20 -3 -28 -9 -12 -12 -11 -18 5 -4 10
-8 28 -8 41 -1 21 -55 102 -73 110 -5 2 -8 14 -8 26 0 34 -43 70 -75 62 -24
-6 -92 11 -135 34 -9 5 -30 11 -46 14 -19 4 -49 27 -89 71 -84 91 -153 113
-227 74 -26 -14 -83 -3 -133 26 -22 12 -55 26 -73 30 -17 3 -56 24 -85 46 -28
22 -68 44 -87 49 -19 6 -57 30 -83 55 -46 44 -48 47 -34 69 21 31 22 52 9 116
-14 62 -86 183 -155 261 -8 10 -18 31 -22 48 -3 16 -14 40 -24 53 -10 13 -21
32 -25 44 -3 11 -20 35 -37 52 -33 33 -46 77 -54 176 -6 75 -37 101 -117 101
-39 -1 -63 -5 -66 -13 -9 -28 -18 -8 -18 41 0 30 -7 63 -15 74 -21 31 -111
103 -128 103 -8 0 -12 3 -8 6 3 3 -1 24 -9 46 -15 43 -26 155 -25 252 1 48 7
68 31 105 17 24 35 62 40 83 6 20 17 41 24 45 21 12 141 192 170 255 l27 57
33 -20 33 -19 20 23 c43 47 77 147 54 161 -6 4 -11 15 -11 25 0 11 -27 47 -60
81 -40 42 -57 66 -51 74 5 6 10 54 10 106 1 52 2 104 2 115 0 11 0 31 0 45 -1
36 5 133 10 145 6 18 -33 85 -50 86 -96 5 -117 9 -126 25 -37 64 -116 104
-204 104 -30 0 -59 9 -89 26 -44 26 -77 28 -147 9 -13 -4 -29 3 -46 19 l-26
24 -49 -18 c-27 -9 -83 -33 -124 -52 -41 -20 -91 -41 -111 -47 -20 -6 -42 -22
-48 -35 -13 -23 -60 -51 -113 -66 -25 -8 -28 -5 -39 27 -10 33 -13 35 -43 28
-17 -4 -47 -7 -66 -8 -31 -2 -35 1 -33 20 2 17 -7 29 -32 45 -19 13 -35 26
-35 29 0 4 15 13 33 22 17 8 57 27 88 41 31 14 72 26 92 26 20 0 46 4 59 9 13
5 42 11 65 14 52 8 89 26 131 65 25 23 30 35 26 57 -3 16 -7 32 -10 37 -3 4
11 8 31 8 27 0 44 8 66 29 31 31 34 48 20 97 -10 37 -3 52 22 48 25 -3 137 28
212 60 64 26 75 29 193 46 42 6 105 17 139 25 61 14 85 12 111 -8 7 -6 27 -11
45 -13 98 -9 197 -23 205 -28 6 -3 52 -8 104 -10 106 -6 177 -19 222 -42 63
-33 83 -34 165 -10 43 13 91 21 107 20 16 -2 71 6 121 17 74 17 96 19 108 9
11 -9 22 -9 46 -1 25 9 38 7 68 -8 24 -11 45 -15 59 -10 13 5 22 3 25 -5 5
-13 42 -10 104 9 14 4 36 1 55 -8 18 -9 56 -21 83 -28 59 -14 67 -20 69 -50 1
-32 42 -41 158 -35 58 3 100 1 103 -4 16 -27 112 1 125 36 8 20 17 24 48 24
20 0 48 -8 62 -17 33 -23 99 -35 205 -38 73 -1 97 2 125 18 l34 19 24 -28 c23
-26 25 -27 50 -12 15 9 43 21 62 27 19 6 50 25 69 42 34 31 41 62 30 124 -3
15 5 25 31 37 40 21 78 25 44 5z m-1164 -26 c0 -5 -4 -12 -9 -15 -12 -8 -72 4
-67 13 7 11 76 13 76 2z m1373 -46 c11 0 10 -19 -2 -23 -5 -2 -15 7 -21 19
-10 17 -10 20 2 13 7 -5 16 -9 21 -9z m412 -44 c-31 -18 -65 -61 -65 -81 0 -6
12 -27 26 -46 l26 -34 -62 0 c-51 0 -71 -5 -106 -27 -42 -27 -44 -30 -44 -76
0 -45 2 -49 33 -62 31 -13 88 -13 168 0 27 4 73 -20 64 -34 -7 -12 17 -38 50
-56 21 -10 25 -15 12 -15 -11 0 -39 18 -64 40 -44 38 -46 39 -126 40 -45 1
-106 2 -134 3 l-53 0 3 40 c1 29 -3 42 -17 51 -10 6 -28 20 -40 32 l-22 21 41
12 c83 24 144 59 150 84 4 14 22 40 41 58 19 18 34 39 34 45 0 8 17 14 43 17
23 2 49 4 57 5 8 1 1 -6 -15 -17z m-235 5 c0 -28 -27 -60 -62 -76 -68 -31 -90
-26 -42 9 21 16 46 39 54 50 12 18 50 30 50 17z m-4495 -99 c-8 -12 -15 -36
-15 -53 0 -23 -8 -39 -27 -54 -35 -27 -62 -22 -78 16 l-12 30 66 46 c68 47 93
53 66 15z m235 -156 c18 -36 10 -46 -63 -78 -114 -50 -107 -49 -107 -16 0 16
-7 38 -15 50 -18 25 -10 29 60 37 22 3 54 9 70 15 42 13 43 13 55 -8z m3835
-110 c3 -12 17 -21 32 -23 15 -2 27 -10 29 -19 1 -9 12 -28 25 -43 25 -29 68
-34 107 -12 21 11 27 9 57 -21 19 -19 39 -32 45 -28 5 3 10 -1 10 -10 0 -8
-20 -29 -44 -47 -53 -37 -69 -89 -41 -132 9 -14 16 -29 15 -33 -9 -41 -82 -93
-168 -120 -61 -20 -70 -33 -82 -126 -8 -56 -38 -107 -63 -107 -17 0 -2 105 20
136 19 28 19 30 3 66 -22 51 -20 49 -90 55 -63 4 -107 25 -183 86 -19 15 -58
33 -86 40 -36 8 -50 16 -46 25 3 8 -3 27 -12 43 -17 28 -17 29 12 59 46 48
184 133 239 147 28 7 62 25 78 40 24 23 59 35 125 42 6 0 14 -8 18 -18z m5286
-28 c3 -27 9 -47 18 -56 6 -6 11 -24 11 -39 0 -39 23 -70 74 -103 56 -35 65
-69 25 -86 -39 -16 -71 -70 -69 -116 3 -57 2 -61 -18 -72 -12 -6 -32 -6 -58 0
-34 9 -51 7 -112 -15 -40 -13 -72 -20 -72 -15 0 5 8 12 18 15 57 17 80 37 92
79 6 23 13 56 14 74 1 19 11 37 24 47 12 8 32 33 43 56 16 31 18 46 10 68 -5
16 -7 30 -5 33 2 2 -11 15 -31 28 -19 13 -35 32 -35 42 0 28 68 85 71 60z
m-1211 -369 c0 -8 5 -14 11 -14 6 0 9 -7 5 -15 -3 -8 1 -30 10 -50 15 -37 15
-38 -10 -29 -8 3 -12 12 -9 20 6 16 -15 46 -28 39 -10 -7 -23 60 -14 75 9 14
35 -6 35 -26z m-168 -224 c-3 -30 -11 -45 -28 -57 -28 -18 -29 -18 -38 19 -5
23 -1 31 31 53 21 14 38 25 38 25 0 0 -1 -18 -3 -40z m338 -39 c10 -20 28 -46
42 -57 41 -33 26 -51 -50 -59 -37 -4 -79 -8 -94 -10 -25 -3 -28 0 -28 25 0 16
-4 32 -10 35 -14 8 -13 25 2 25 6 0 26 11 44 25 26 20 32 31 30 59 l-1 34 24
-19 c14 -11 32 -37 41 -58z m-3084 -276 c7 -27 31 -39 88 -43 50 -4 -20 -24
-74 -21 -14 1 -44 2 -68 2 -42 0 -42 0 -25 21 63 76 69 79 79 41z m4952 -294
c6 -16 20 -34 31 -41 12 -6 21 -17 21 -25 0 -18 31 -35 63 -35 14 0 51 12 82
26 46 21 62 24 74 15 9 -6 39 -22 68 -35 29 -14 74 -41 99 -61 26 -19 58 -38
71 -41 13 -4 23 -12 23 -20 0 -11 -17 -13 -77 -11 -63 2 -93 9 -152 36 -66 29
-82 33 -145 29 -54 -2 -85 -10 -130 -33 -107 -54 -220 -16 -171 58 9 14 17 33
19 43 2 11 20 48 41 82 31 53 39 61 54 52 11 -5 24 -23 29 -39z m6441 -123
c13 -5 21 -11 19 -14 -3 -2 -17 1 -32 7 -21 10 -29 9 -43 -3 -35 -29 -43 -29
-25 1 18 32 21 32 81 9z m-7814 -91 c0 -39 -5 -70 -13 -80 -8 -9 -11 -20 -8
-25 3 -5 8 -31 12 -58 8 -60 19 -83 46 -93 32 -12 70 -2 107 28 30 25 33 32
33 82 1 35 -5 64 -15 80 -29 44 -6 51 43 13 24 -19 71 -48 104 -64 63 -30 133
-86 122 -97 -4 -4 -35 -8 -69 -10 -34 -1 -65 -2 -68 -3 -20 -1 -52 -44 -53
-70 -1 -35 -2 -36 -43 -10 -44 26 -81 30 -125 13 -27 -11 -48 -12 -80 -6 -26
6 -57 5 -78 0 -19 -5 -53 -10 -75 -12 -188 -14 -220 -20 -289 -56 -61 -31 -92
-33 -38 -2 17 10 37 29 44 43 7 14 19 33 26 42 8 10 16 40 17 68 2 58 29 95
76 105 34 8 98 67 101 92 0 10 2 25 2 33 1 12 18 15 87 15 64 0 91 4 109 17
14 9 25 17 25 17 0 1 0 -28 0 -62z m606 -30 c14 -10 1 -6 -28 8 -29 14 -53 27
-53 30 0 7 54 -18 81 -38z m438 -126 c6 -10 13 -41 15 -68 6 -56 21 -103 34
-103 4 0 20 -20 36 -44 28 -45 60 -66 99 -66 13 0 33 -7 45 -16 32 -22 96 -22
121 0 19 18 22 18 47 2 18 -12 23 -23 19 -34 -17 -42 -16 -52 10 -77 45 -41
127 -27 158 28 28 48 32 23 9 -56 -11 -39 -25 -88 -30 -107 -8 -34 -9 -35 -52
-32 -24 1 -49 7 -56 13 -24 20 -100 19 -140 -2 -47 -23 -54 -23 -128 1 -33 11
-70 20 -83 20 -31 0 -141 37 -173 58 -32 21 -44 24 -111 25 -44 1 -63 -3 -91
-22 -44 -30 -72 -81 -66 -116 4 -21 2 -25 -11 -20 -9 4 -43 16 -76 27 -42 14
-71 32 -95 59 -38 43 -92 66 -184 79 -80 12 -99 31 -88 90 5 25 5 57 1 71 -7
29 -1 79 10 79 12 0 135 -51 145 -60 4 -5 28 -1 52 8 37 14 45 21 50 50 4 18
13 36 21 39 7 3 22 22 33 42 10 21 26 43 34 50 9 8 16 22 16 32 0 12 8 20 20
21 11 0 24 1 29 2 15 2 82 -95 103 -150 23 -61 73 -112 118 -121 16 -3 28 -8
27 -12 -1 -3 7 -20 17 -37 34 -56 164 -78 220 -37 14 10 27 23 30 29 6 14 -61
84 -83 85 -9 1 -31 3 -49 5 -19 1 -36 5 -39 8 -3 2 -16 0 -30 -5 -26 -9 -26
-9 -9 16 9 14 14 31 10 37 -4 6 7 23 26 38 38 31 37 60 -5 102 -22 22 -23 27
-10 38 8 7 15 21 15 31 0 25 26 24 39 0z m5599 -25 c-1 -3 12 -20 30 -39 l33
-34 -25 -11 c-20 -9 -27 -7 -42 9 -9 10 -23 19 -30 19 -9 0 -6 11 9 34 12 18
24 32 25 31 2 -2 2 -6 0 -9z m1236 -154 c13 -26 26 -74 29 -117 2 -17 -5 -20
-43 -23 -49 -3 -106 -25 -112 -43 -3 -8 -10 -8 -26 2 -21 13 -21 14 -2 34 19
21 20 22 20 54 0 12 8 21 22 23 12 2 34 22 52 50 17 26 34 47 38 47 4 1 14
-11 22 -27z m-684 -28 c45 -52 55 -82 34 -105 -22 -24 -34 -24 -34 0 0 10 -11
35 -25 55 -24 36 -34 86 -16 86 5 0 23 -16 41 -36z m-7064 -43 c-3 -5 -1 -23
6 -41 8 -26 8 -38 -2 -53 -22 -35 -28 -72 -16 -93 34 -61 140 -124 207 -124
35 0 109 -22 109 -32 0 -17 64 -78 81 -78 11 0 58 -16 106 -35 48 -19 94 -35
102 -35 51 0 110 82 97 135 -12 47 55 55 114 15 14 -10 41 -21 60 -25 19 -4
47 -14 62 -21 15 -8 45 -14 66 -14 21 0 65 -9 98 -21 86 -30 104 -31 157 -3
36 19 52 22 67 14 10 -5 28 -10 39 -10 12 0 21 -4 21 -10 0 -5 -4 -10 -9 -10
-5 0 -11 -14 -13 -31 -5 -31 20 -87 120 -271 51 -94 56 -102 80 -131 12 -16
22 -40 22 -53 0 -35 16 -63 65 -110 39 -37 43 -46 43 -90 1 -81 36 -175 81
-217 26 -24 47 -58 65 -105 23 -60 35 -76 86 -116 32 -25 76 -65 97 -88 21
-23 50 -53 64 -68 19 -20 25 -35 24 -64 -2 -32 4 -44 46 -87 26 -27 52 -49 58
-50 35 -4 52 -2 106 9 33 7 89 22 125 32 36 11 76 21 90 24 14 2 37 7 51 11
l26 6 -17 -68 c-34 -139 -99 -282 -178 -393 -52 -73 -100 -122 -186 -187 -62
-48 -88 -74 -149 -157 -41 -57 -40 -56 -96 -111 -23 -22 -41 -43 -41 -48 0 -5
-23 -56 -51 -113 -54 -111 -61 -151 -36 -201 10 -19 14 -47 12 -76 -4 -46 31
-162 58 -195 6 -8 12 -72 14 -160 2 -140 1 -148 -22 -188 -20 -34 -39 -49 -90
-73 -83 -40 -261 -198 -273 -244 -11 -38 -7 -70 13 -113 16 -33 20 -65 17
-131 -2 -42 -2 -43 -74 -79 -97 -49 -113 -66 -114 -129 -1 -88 -25 -157 -64
-185 -16 -11 -45 -46 -66 -77 -39 -61 -115 -141 -174 -184 -58 -43 -122 -61
-223 -63 -72 -2 -110 -8 -174 -31 -107 -37 -115 -32 -107 69 5 71 4 75 -46
178 -27 58 -50 109 -50 112 0 4 -15 29 -34 56 -19 28 -37 62 -40 77 -14 71
-18 91 -27 138 -5 28 -11 85 -13 128 -4 65 -9 85 -34 125 -17 26 -40 77 -52
114 -12 37 -32 84 -46 103 -32 48 -34 125 -4 230 26 92 32 107 72 157 22 28
30 51 34 100 5 55 3 70 -21 116 -15 30 -23 57 -18 65 4 6 9 19 10 27 3 19 -27
142 -38 156 -5 6 -18 39 -29 75 -13 43 -37 87 -74 134 -31 39 -72 94 -93 123
-37 53 -37 54 -23 100 7 26 16 74 21 107 9 78 20 139 25 144 14 15 -93 163
-115 159 -3 -1 -18 4 -33 12 -19 9 -31 10 -40 3 -7 -6 -31 -13 -54 -17 -40 -6
-41 -5 -59 35 -10 22 -34 54 -53 71 l-36 30 -100 -5 c-103 -5 -181 -28 -264
-79 -31 -19 -39 -20 -105 -8 -40 6 -81 13 -92 14 -34 3 -108 -13 -157 -34 -66
-28 -81 -26 -140 25 -29 25 -71 61 -93 80 -22 19 -56 44 -75 57 -26 18 -38 36
-50 76 -8 29 -31 72 -50 95 -19 23 -42 54 -50 69 -14 25 -78 82 -102 90 -5 2
-12 26 -14 53 -3 28 -10 66 -16 86 -8 30 -7 42 11 77 12 23 21 53 21 67 0 15
5 36 11 48 7 12 11 67 11 134 -1 97 -5 120 -23 153 l-22 38 20 29 c11 15 23
45 27 66 4 22 21 54 40 75 40 45 56 74 56 102 0 12 13 33 29 48 16 15 40 46
55 70 19 31 33 42 51 42 26 0 152 101 181 144 9 15 14 44 13 82 -2 75 26 143
67 164 55 27 105 72 125 112 16 31 24 38 37 32 9 -4 33 -9 52 -10 19 -2 56 -6
81 -9 38 -6 54 -3 95 19 27 14 54 26 61 26 7 0 40 14 73 32 56 29 70 32 168
34 59 2 124 8 144 15 26 8 48 9 76 2 28 -7 48 -7 73 2 42 15 72 18 65 6z
m1524 -57 c0 -8 -4 -12 -10 -9 -5 3 -10 13 -10 21 0 8 5 12 10 9 6 -3 10 -13
10 -21z m-113 -380 c-3 -3 -12 -4 -19 -1 -8 3 -5 6 6 6 11 1 17 -2 13 -5z
m1070 -111 c34 -60 90 -120 119 -127 15 -4 43 -20 64 -37 33 -27 103 -56 123
-51 12 3 8 -9 -14 -36 -16 -21 -30 -27 -60 -28 -37 0 -39 1 -39 30 0 43 -32
92 -66 100 -42 11 -174 149 -174 182 0 2 6 4 13 4 7 0 23 -17 34 -37z m-884
-165 c15 -20 27 -40 27 -44 0 -4 11 -22 25 -40 14 -18 25 -38 25 -45 0 -17
-50 53 -90 126 -35 63 -31 64 13 3z m-9006 -55 c-3 -10 -5 -4 -5 12 0 17 2 24
5 18 2 -7 2 -21 0 -30z m9144 -157 c34 -20 65 -77 68 -125 3 -51 30 -101 85
-154 27 -26 58 -66 68 -89 11 -24 37 -66 59 -95 33 -42 41 -62 45 -103 l4 -51
-45 32 c-60 43 -69 54 -96 119 -27 65 -55 108 -86 133 -25 20 -46 84 -44 132
2 59 -20 114 -65 157 -34 33 -44 50 -43 73 0 27 1 28 10 9 6 -11 24 -28 40
-38z m-6926 -947 c-22 -42 -12 -98 23 -126 15 -13 35 -23 45 -23 49 0 92 65
82 122 -4 20 0 30 14 38 31 16 45 12 90 -26 38 -33 46 -36 87 -31 32 3 55 -1
81 -14 21 -11 47 -19 60 -19 27 0 73 20 73 32 0 16 29 8 55 -16 14 -13 38 -26
53 -29 18 -4 32 -17 42 -38 8 -18 29 -40 47 -49 57 -30 83 -50 83 -65 0 -21
99 -120 130 -130 13 -4 63 -8 110 -9 98 -2 134 -17 192 -79 32 -34 58 -87 58
-122 0 -6 9 -27 19 -46 17 -31 18 -39 6 -55 -7 -11 -13 -36 -13 -57 0 -43 27
-68 80 -74 17 -2 36 -10 42 -18 19 -25 84 -47 105 -35 14 7 30 6 58 -4 65 -23
93 -39 93 -51 0 -6 17 -26 37 -44 30 -26 41 -31 57 -23 15 7 42 4 91 -9 39
-10 89 -18 112 -17 47 1 78 -18 159 -93 44 -41 100 -69 140 -69 6 0 17 -26 23
-58 18 -92 0 -151 -69 -226 -21 -22 -52 -68 -69 -101 -17 -33 -45 -75 -61 -94
-35 -39 -33 -27 -35 -201 -1 -78 -7 -148 -14 -165 -7 -16 -15 -52 -17 -78 -3
-28 -17 -70 -34 -101 -17 -29 -30 -62 -30 -74 0 -34 -53 -79 -104 -86 -24 -4
-75 -22 -112 -41 -38 -19 -73 -35 -79 -35 -19 0 -105 -82 -130 -123 -25 -43
-31 -101 -19 -165 6 -32 -11 -92 -26 -92 -5 0 -21 -33 -37 -72 -16 -43 -45
-92 -70 -120 -23 -26 -47 -65 -53 -87 -5 -21 -17 -44 -25 -51 -8 -7 -15 -18
-15 -25 0 -38 -67 -48 -136 -19 -19 8 -34 11 -34 8 0 -3 -11 1 -24 9 -21 14
-27 14 -67 -7 -38 -19 -43 -25 -39 -46 7 -35 20 -53 58 -80 17 -13 32 -31 32
-41 0 -9 10 -28 21 -43 18 -23 20 -32 11 -51 -19 -41 -56 -57 -146 -62 l-84
-6 -25 -38 c-14 -21 -21 -41 -16 -44 5 -4 9 -19 9 -36 0 -28 -1 -29 -37 -23
-57 9 -89 -8 -97 -49 -7 -37 12 -95 39 -117 10 -8 13 -20 9 -34 -4 -12 -6 -37
-5 -57 1 -28 -3 -38 -22 -48 -32 -17 -57 -62 -57 -104 0 -42 32 -84 84 -112
34 -18 47 -35 28 -35 -12 0 -32 -46 -32 -72 0 -11 -11 -33 -25 -50 -29 -34
-33 -82 -9 -116 15 -22 14 -24 -9 -46 -13 -12 -26 -28 -28 -35 -4 -10 -28 -2
-87 28 -73 37 -85 47 -101 84 -10 23 -26 49 -35 57 -26 21 -66 105 -66 138 0
16 6 35 14 41 13 11 12 17 -1 49 -8 20 -21 42 -28 48 -8 6 -15 29 -16 52 -2
34 2 45 25 63 29 23 30 34 10 147 -7 36 -59 86 -80 78 -8 -3 -14 -2 -15 2 0 4
-3 16 -6 27 -2 11 -5 47 -5 80 0 43 -7 75 -25 112 -15 33 -22 61 -18 73 4 12
8 42 10 68 2 26 7 78 11 117 11 121 11 149 -3 200 -15 54 -36 198 -33 230 3
54 -1 547 -6 590 -10 100 -35 184 -61 207 -14 13 -40 37 -57 54 -17 18 -58 46
-91 64 -70 39 -171 104 -202 133 -13 11 -26 36 -29 56 -4 19 -23 60 -43 91
-20 31 -68 118 -106 194 -39 75 -76 149 -84 164 -7 15 -34 48 -59 75 -26 26
-43 47 -40 47 4 0 1 18 -7 39 -12 35 -12 41 2 53 75 62 99 178 37 178 -30 0
-31 17 -1 93 13 35 33 67 49 78 14 11 36 39 48 64 12 25 30 50 40 55 10 5 29
29 42 52 22 39 24 54 23 169 -1 112 -4 129 -23 156 -25 35 -28 47 -9 40 34
-13 157 84 157 124 0 38 13 49 71 60 33 6 62 16 65 20 14 23 13 6 -1 -22z
m9755 -234 c0 -17 -2 -17 -10 -5 -5 8 -10 24 -10 35 0 17 2 17 10 5 5 -8 10
-24 10 -35z m1372 -169 c6 -11 12 -46 14 -79 3 -51 1 -57 -11 -47 -8 7 -15 18
-15 25 0 7 -7 18 -15 25 -9 7 -20 32 -26 57 -6 24 -15 46 -20 49 -5 3 -9 17
-9 32 l0 26 36 -35 c20 -18 40 -43 46 -53z m-198 -168 c64 -74 69 -78 109 -85
28 -4 45 -15 65 -41 15 -19 34 -42 42 -51 8 -10 16 -32 18 -51 1 -23 12 -44
30 -61 15 -14 28 -31 30 -38 6 -27 35 -61 63 -73 16 -7 27 -19 24 -25 -2 -7
-7 -35 -11 -62 l-6 -50 -55 47 c-64 55 -128 142 -167 227 -15 33 -39 71 -52
86 -13 14 -35 54 -49 90 -17 43 -37 74 -62 96 -21 18 -33 33 -27 33 7 0 28
-19 48 -42z m783 -724 c-3 -3 -12 -4 -19 -1 -8 3 -5 6 6 6 11 1 17 -2 13 -5z
m3343 -2231 c0 -5 -11 -13 -25 -19 -23 -11 -24 -10 -14 7 9 18 39 27 39 12z
m-60 -46 c0 -2 -10 -12 -22 -23 l-23 -19 19 23 c18 21 26 27 26 19z m-701
-423 c-12 -15 -90 -54 -107 -54 -10 0 101 68 112 69 5 1 2 -6 -5 -15z m-13386
-632 l38 -38 -46 10 c-31 7 -44 15 -40 24 3 8 5 20 5 28 0 19 1 19 43 -24z
m8829 -899 c58 3 131 14 168 25 78 24 150 34 150 21 0 -11 70 -43 77 -35 2 2
23 -4 46 -15 56 -25 133 -24 209 3 36 12 82 20 108 19 140 -7 251 -6 294 1 26
4 93 10 148 13 55 3 104 7 109 10 4 3 19 -6 31 -20 l22 -26 167 5 c167 5 167
4 173 -18 12 -48 204 -114 300 -104 32 4 48 0 65 -13 13 -11 33 -19 46 -19 12
0 34 -11 49 -25 55 -51 71 -57 162 -58 l87 -1 -63 -28 c-34 -16 -85 -32 -114
-37 -82 -14 -216 -50 -395 -108 -119 -38 -271 -127 -271 -159 0 -12 -64 -23
-169 -29 -25 -1 -105 -22 -177 -46 -124 -42 -131 -46 -157 -86 -41 -62 -23
-116 46 -144 18 -7 42 -21 55 -33 l22 -20 -107 -33 -108 -33 -6095 0 -6096 0
-89 26 c-94 27 -145 50 -90 39 29 -5 74 -11 145 -20 19 -2 76 -7 125 -10 50
-4 106 -8 125 -10 19 -2 69 -4 110 -4 41 1 131 0 200 -2 69 -1 154 -2 190 -3
59 -1 158 9 166 16 1 2 6 26 9 54 9 65 8 65 -159 70 -71 2 -157 9 -190 15 -34
6 -85 13 -114 14 -68 5 -88 19 -67 48 65 93 -69 146 -393 158 -29 1 -55 5 -57
9 -3 4 11 15 30 24 19 9 34 20 34 24 -6 39 13 49 111 58 25 3 70 13 100 23 47
15 83 17 240 15 429 -6 500 -5 519 6 11 5 44 9 73 8 29 -1 67 2 84 6 21 5 45
1 78 -14 27 -11 65 -19 85 -18 20 1 77 -6 126 -15 60 -10 126 -14 200 -12 61
2 129 0 152 -4 40 -8 44 -6 73 25 18 20 27 39 24 49 -5 12 1 15 27 16 19 0 43
3 54 6 11 3 64 6 117 7 59 1 102 7 111 15 9 7 26 9 40 6 14 -4 46 -8 70 -9 24
-2 49 -6 54 -9 6 -4 48 -10 94 -13 46 -4 90 -10 98 -14 8 -4 29 -2 46 6 39 16
158 12 180 -6 18 -15 87 -11 151 11 28 9 73 20 100 23 121 16 148 30 163 83
11 38 -6 76 -51 112 -75 61 -98 84 -98 97 0 12 8 11 37 -5 21 -11 52 -25 70
-31 45 -17 143 -95 203 -163 l52 -57 -37 -33 c-27 -24 -55 -37 -98 -46 -34 -7
-73 -19 -88 -27 -17 -8 -72 -15 -146 -18 -65 -2 -121 -5 -124 -5 -10 -1 -30
-91 -23 -102 3 -6 17 -14 30 -19 20 -8 22 -13 15 -34 -8 -19 -5 -28 17 -49 15
-13 45 -31 67 -38 22 -7 45 -17 51 -21 7 -5 20 -10 30 -13 11 -2 38 -8 61 -13
23 -5 44 -8 46 -5 3 2 70 -7 150 -21 80 -15 173 -28 208 -31 136 -9 279 -34
341 -59 38 -15 61 -14 138 8 30 9 73 18 95 22 22 3 43 8 48 11 11 7 171 6 247
-2 48 -4 75 -2 102 9 21 9 62 16 91 16 30 0 76 4 103 9 27 5 85 12 129 16 44
3 101 10 126 16 44 10 45 11 48 51 1 23 4 45 6 49 8 11 -89 69 -116 69 -23 0
-23 1 5 15 29 15 116 31 216 38 71 6 241 52 301 83 57 29 82 59 69 85 -8 15
-5 19 23 24 43 10 102 40 126 66 15 16 27 20 48 15 77 -18 91 -18 113 4 15 15
25 18 38 11 26 -14 70 -16 138 -7 39 5 76 4 100 -3 41 -12 61 -9 284 46 136
33 157 34 205 6 46 -26 81 -23 132 9 24 14 44 19 74 15 22 -2 42 -7 45 -10 3
-3 21 1 39 9 51 21 190 13 240 -14 29 -16 51 -21 80 -17 22 3 83 7 135 10 52
2 122 12 155 20 62 17 66 18 126 29 20 4 55 19 77 35 35 26 41 28 54 14 9 -8
35 -17 59 -20 24 -3 53 -12 64 -19 28 -20 85 -17 120 4 31 19 113 49 156 57
57 11 125 28 141 36 10 5 39 11 67 13 27 2 58 9 70 16 12 6 47 15 77 20 30 5
67 18 83 29 60 43 228 64 240 30 9 -27 52 -55 127 -85 83 -33 110 -35 184 -14
37 11 56 10 110 -2 l65 -15 -42 -11 c-44 -13 -98 -66 -87 -84 4 -6 -1 -17 -10
-23 -22 -16 -28 -86 -9 -111 10 -13 29 -19 76 -22 58 -4 68 -1 152 43 50 26
104 58 120 70 17 13 53 26 80 29 146 20 149 21 197 53 46 31 252 103 293 102
62 -1 191 12 217 22 19 8 32 7 50 -2 30 -17 291 -25 468 -15 61 4 93 13 175
49 l100 45 37 -41 38 -40 102 6z m-1932 -183 c-8 -5 -19 -10 -25 -10 -5 0 -3
5 5 10 8 5 20 10 25 10 6 0 3 -5 -5 -10z m-6353 -37 c4 -12 -28 -13 -44 -1 -6
5 -9 16 -6 24 5 13 8 13 26 1 12 -8 22 -18 24 -24z m1310 -435 c27 -11 25 -12
-42 -23 -80 -13 -89 -11 -75 16 12 22 72 26 117 7z"/>
<path d="M13658 17322 l-38 -3 0 -55 c0 -52 4 -59 36 -55 6 1 24 -6 40 -14 34
-17 60 -19 100 -5 16 5 44 11 63 14 18 3 38 9 43 14 15 15 -1 91 -21 102 -16
8 -133 9 -223 2z"/>
<path d="M12647 17314 c-1 -1 -22 -3 -47 -5 -25 -1 -49 -6 -55 -10 -5 -3 -28
-10 -50 -13 -41 -7 -45 -7 -117 -6 -36 0 -66 -2 -100 -9 -3 0 -13 -21 -22 -46
-15 -45 -15 -46 12 -73 15 -15 53 -39 84 -52 31 -14 59 -32 61 -40 4 -17 98
-50 141 -50 20 0 43 14 79 50 l51 50 15 -25 c17 -27 72 -41 130 -30 58 10 69
21 64 58 -4 32 -2 35 40 52 l43 18 -6 44 c-4 24 -7 47 -8 51 -2 16 -94 33
-200 36 -62 1 -113 1 -115 0z m-87 -144 c12 -7 12 -12 -3 -28 -20 -21 -48 -19
-69 5 -9 12 -9 16 3 24 18 11 50 11 69 -1z"/>
<path d="M11055 16503 c-22 -8 -53 -12 -69 -9 -16 4 -46 1 -68 -6 -33 -10 -44
-9 -66 4 -29 17 -106 17 -138 0 -11 -6 -28 -20 -38 -31 -19 -21 -19 -24 -3
-69 9 -26 17 -57 17 -69 0 -16 6 -23 19 -23 12 0 23 -11 29 -28 9 -27 15 -30
103 -43 52 -7 96 -13 99 -12 3 1 19 3 35 6 17 2 64 15 105 27 160 47 195 102
132 204 -18 31 -39 56 -45 57 -7 0 -25 2 -42 4 -16 1 -48 -4 -70 -12z m60
-122 c-6 -5 -43 -19 -83 -31 -68 -20 -105 -22 -201 -10 -2 0 2 7 9 15 7 9 23
13 38 10 13 -2 38 3 53 11 22 11 34 12 49 4 14 -7 33 -5 72 8 50 17 84 13 63
-7z"/>
<path d="M19383 13628 c-38 -10 -66 -46 -86 -113 -12 -41 -12 -57 -2 -92 7
-23 20 -49 29 -58 8 -9 19 -23 24 -31 6 -11 19 -13 55 -8 41 6 48 10 56 38 6
17 13 54 16 81 3 28 7 66 9 85 5 40 -24 95 -52 102 -9 3 -31 1 -49 -4z"/>
<path d="M6695 13483 c-58 -13 -91 -29 -125 -59 -38 -35 -39 -39 -25 -110 7
-33 47 -35 108 -7 44 21 57 23 83 14 17 -6 37 -11 45 -11 54 0 179 -82 207
-135 9 -18 7 -20 -21 -22 -17 -1 -40 -11 -51 -22 -44 -45 26 -148 93 -137 14
2 36 5 48 5 15 1 30 15 47 43 23 39 24 42 8 64 -9 13 -28 28 -42 33 -20 7 -12
9 40 9 55 0 62 -2 46 -13 -13 -10 -16 -21 -10 -49 9 -50 36 -66 110 -66 40 0
66 -5 73 -14 12 -14 87 -7 100 10 8 11 22 14 94 20 33 2 63 7 68 10 5 3 19 -4
31 -15 25 -24 98 -28 138 -8 19 9 25 22 28 54 3 35 0 44 -22 58 -29 19 -99 27
-132 15 -16 -7 -24 -5 -28 6 -3 8 -18 20 -33 26 -15 7 -41 22 -58 34 -44 31
-81 40 -168 39 -73 -1 -81 1 -109 27 -17 15 -38 28 -48 28 -10 0 -20 6 -23 14
-3 7 -18 17 -33 20 -15 4 -50 27 -77 52 -46 41 -63 49 -95 45 -8 -1 -21 4 -30
12 -37 32 -160 47 -237 30z"/>
<path d="M1868 13403 c-11 -12 -14 -29 -10 -53 5 -38 16 -50 48 -50 11 0 31
-11 44 -25 13 -14 32 -25 42 -25 30 0 48 -25 44 -60 -2 -18 1 -47 7 -66 10
-32 13 -34 54 -34 98 0 149 91 86 154 -15 15 -32 37 -38 49 -12 25 -128 87
-162 87 -12 0 -27 9 -33 20 -13 25 -61 27 -82 3z"/>
<path d="M19413 13128 c-26 -27 -28 -36 -28 -105 -1 -45 -5 -78 -12 -80 -18
-6 12 -123 36 -137 20 -13 41 -68 32 -84 -10 -17 7 -50 45 -90 18 -19 26 -21
49 -12 24 9 26 9 16 -4 -18 -22 -4 -104 20 -117 12 -6 19 -21 19 -39 0 -16 7
-36 17 -45 10 -11 12 -19 6 -23 -35 -23 -57 -128 -30 -150 18 -15 85 -18 98
-5 10 10 16 4 29 -26 24 -53 95 -94 140 -81 41 12 60 28 60 51 0 11 7 19 15
19 41 0 50 123 15 216 -5 12 -7 24 -4 27 3 2 -13 20 -36 39 -44 38 -48 52 -24
79 33 37 -31 158 -85 162 -15 1 -28 15 -42 43 -22 44 -86 84 -134 84 -29 0
-32 19 -9 55 23 36 26 82 7 140 -19 62 -27 78 -36 76 -4 -1 -20 5 -35 13 -15
7 -44 16 -64 19 -31 4 -41 0 -65 -25z m101 -160 c-9 -14 -22 15 -23 47 0 16 2
15 15 -8 8 -15 12 -33 8 -39z m110 -296 c3 -5 -1 -9 -9 -9 -8 0 -12 4 -9 9 3
4 7 8 9 8 2 0 6 -4 9 -8z m225 -338 c2 -10 0 -16 -4 -12 -4 4 -16 3 -26 -3
-22 -11 -24 -6 -7 21 15 24 32 21 37 -6z"/>
<path d="M19376 12569 c-9 -22 -36 -64 -61 -94 -25 -31 -45 -63 -45 -73 0 -9
18 -29 40 -45 l39 -27 37 32 c20 18 55 57 78 88 33 45 41 63 40 98 -1 23 -3
44 -5 46 -2 2 -27 6 -56 9 l-52 5 -15 -39z"/>
<path d="M19252 12289 c-15 -17 -57 -61 -93 -97 -37 -37 -78 -86 -93 -108 -22
-33 -36 -44 -71 -53 -45 -11 -85 -44 -85 -69 0 -9 -6 -12 -16 -8 -32 12 -88
-12 -111 -49 -42 -64 -25 -212 32 -275 7 -8 15 -29 17 -45 5 -46 39 -82 84
-91 21 -4 55 -12 74 -19 21 -7 44 -9 57 -4 23 8 83 -6 83 -20 0 -4 16 -13 36
-19 32 -10 45 -8 93 13 53 22 57 26 73 77 9 29 17 66 17 81 1 17 11 37 27 50
19 16 27 36 31 69 4 33 10 48 23 51 17 4 17 2 3 -47 -8 -28 -17 -62 -20 -76
-2 -13 -8 -29 -12 -35 -26 -33 -19 -98 14 -131 18 -18 19 -33 5 -70 -15 -40
15 -97 55 -105 43 -8 78 7 99 42 l18 31 19 -31 c10 -17 27 -31 36 -32 10 0 27
-2 39 -4 26 -5 61 30 74 74 7 26 4 41 -20 85 -15 30 -26 57 -23 59 2 3 -2 20
-10 39 -13 30 -13 36 2 54 9 11 29 29 44 39 21 13 27 25 25 44 -2 20 2 27 19
29 52 8 123 144 89 170 -25 21 -80 20 -109 -2 -32 -24 -108 -26 -158 -6 -37
16 -76 6 -113 -28 -16 -15 -27 -20 -24 -12 3 8 -6 23 -19 33 -13 10 -23 25
-23 32 0 8 -8 31 -17 51 -17 35 -17 37 2 53 11 9 26 28 34 44 8 15 18 27 23
27 5 0 12 10 17 23 12 30 -11 72 -50 93 -17 8 -50 35 -73 60 -53 54 -85 58
-124 13z m97 -177 c-10 -7 -28 -31 -40 -53 -21 -43 -19 -89 6 -119 23 -28 25
-75 5 -116 -11 -21 -20 -49 -20 -62 0 -14 -13 -40 -30 -59 -19 -22 -30 -45
-31 -66 -2 -83 -16 -107 -51 -85 -38 23 -105 41 -135 35 -15 -3 -39 0 -52 7
-13 8 -32 11 -43 8 -14 -3 -18 1 -18 20 0 13 -16 48 -35 78 -25 39 -35 66 -35
95 0 40 1 41 34 41 46 0 82 20 97 55 8 20 22 32 48 39 44 13 59 24 96 75 16
22 58 69 94 105 l66 66 32 -25 c31 -24 31 -25 12 -39z m186 -481 c3 -5 1 -12
-5 -16 -5 -3 -10 1 -10 9 0 18 6 21 15 7z"/>
<path d="M19960 11935 c-21 -26 -29 -86 -18 -144 14 -77 33 -110 75 -128 44
-18 61 -6 70 53 3 21 12 47 21 56 24 28 19 104 -8 133 -37 40 -118 57 -140 30z"/>
<path d="M20260 11776 c-19 -8 -47 -17 -61 -20 -19 -4 -30 -17 -42 -47 -15
-38 -15 -43 1 -65 9 -13 26 -26 37 -30 31 -10 55 -35 55 -58 0 -19 -2 -19 -26
7 -34 36 -66 49 -134 52 -39 2 -64 -3 -85 -16 -19 -11 -36 -15 -44 -9 -17 10
-60 3 -79 -12 -21 -18 -40 -61 -34 -78 18 -51 103 -74 147 -40 16 12 143 4
160 -10 15 -12 30 -5 65 30 32 32 40 33 51 1 14 -40 60 -65 104 -57 22 5 36 2
45 -9 11 -13 8 -15 -18 -15 -24 0 -32 -6 -42 -31 -22 -52 -20 -100 4 -109 65
-24 83 -22 106 10 14 20 22 45 22 75 0 42 1 44 24 35 49 -19 84 -41 94 -59 12
-23 13 -61 2 -61 -5 0 -18 -17 -29 -38 l-21 -37 24 -40 c26 -43 39 -47 108
-33 36 8 42 6 71 -22 24 -23 46 -33 91 -40 95 -15 138 1 168 64 14 29 22 36
46 36 24 0 33 -7 49 -37 20 -37 70 -97 102 -121 9 -7 36 -15 60 -18 24 -3 58
-12 74 -19 17 -6 40 -10 53 -8 31 4 72 32 72 49 0 22 -28 84 -37 84 -16 0 -90
75 -107 107 -8 17 -23 39 -32 48 -15 14 -15 18 -2 31 12 12 20 13 54 1 49 -17
86 -12 144 19 56 31 84 54 99 81 18 34 48 25 56 -17 4 -19 18 -54 33 -77 26
-41 45 -53 88 -53 11 0 29 -8 40 -17 10 -10 32 -20 48 -21 17 -2 44 -15 62
-29 28 -21 32 -29 27 -58 -7 -45 16 -81 58 -90 18 -4 47 -22 66 -41 48 -48 81
-46 111 6 18 32 20 44 12 60 -6 11 -15 20 -20 20 -6 0 -9 12 -8 28 3 56 -50
136 -92 137 -8 1 -37 16 -65 35 -27 19 -61 34 -76 34 -15 1 -38 11 -51 24 -14
12 -34 22 -45 22 -13 0 -30 15 -47 40 -15 23 -37 45 -49 50 -47 18 -62 23 -69
22 -5 -1 -8 8 -8 21 0 33 -53 100 -107 136 -49 33 -81 38 -115 20 -17 -9 -19
-17 -14 -52 5 -27 16 -49 31 -62 l24 -20 -20 -24 c-17 -21 -24 -23 -39 -13
-15 9 -23 7 -44 -9 -15 -12 -33 -19 -40 -16 -8 3 -31 -3 -52 -14 -48 -24 -68
-18 -99 30 -32 52 -88 94 -159 120 -33 12 -83 33 -113 46 -29 14 -65 27 -80
31 -16 4 -51 17 -79 30 -83 39 -126 41 -190 8 -31 -16 -64 -39 -75 -52 l-19
-25 -1 24 c-1 47 -10 84 -25 107 -30 46 -134 72 -194 48z m100 -112 c0 -2 -9
-4 -20 -4 -11 0 -20 4 -20 9 0 5 9 7 20 4 11 -3 20 -7 20 -9z m346 -93 c18
-11 60 -28 95 -39 89 -28 237 -90 265 -110 13 -9 28 -28 33 -42 13 -33 31 -54
59 -69 18 -10 20 -15 12 -32 -6 -11 -8 -24 -5 -29 9 -14 -10 -12 -51 5 -42 17
-69 14 -129 -15 -32 -15 -48 -31 -56 -54 -11 -31 -14 -32 -48 -26 -20 4 -49
19 -64 33 -14 15 -39 30 -55 33 -25 5 -28 10 -30 50 -1 24 -12 65 -24 91 -20
42 -33 53 -96 86 l-72 38 26 35 c28 36 68 63 94 64 8 0 29 -9 46 -19z"/>
<path d="M20853 11023 c-27 -19 -88 -191 -97 -275 -5 -55 -53 -179 -73 -191
-6 -4 -21 5 -33 18 -13 14 -28 25 -33 25 -5 0 -29 17 -52 38 -23 20 -50 42
-61 48 -19 11 -19 12 0 45 11 19 34 51 51 72 26 31 31 44 28 74 -2 20 -9 43
-14 49 -14 17 -60 26 -135 28 -49 1 -68 6 -101 29 -24 17 -54 28 -77 29 -41 1
-56 -12 -56 -49 0 -13 -3 -23 -7 -24 -58 -5 -95 -28 -125 -78 -12 -20 -30 -45
-40 -55 -10 -11 -20 -27 -23 -37 -5 -14 -10 -13 -36 12 -32 30 -77 44 -109 34
-63 -20 -155 -91 -197 -152 -8 -13 -21 -23 -28 -23 -7 0 -16 -7 -19 -16 -4
-10 -12 -14 -23 -9 -21 8 -79 -55 -92 -100 -4 -16 -28 -51 -52 -78 -37 -40
-52 -49 -94 -56 -28 -5 -70 -18 -95 -29 -25 -12 -59 -22 -75 -22 -19 0 -67
-22 -124 -56 -52 -30 -99 -53 -106 -50 -13 5 -55 -69 -55 -97 0 -9 -10 -32
-21 -52 -18 -30 -21 -46 -16 -91 4 -43 2 -56 -9 -61 -8 -3 -14 -14 -14 -24 0
-10 -4 -19 -9 -19 -6 0 -8 -10 -5 -22 14 -76 27 -179 27 -213 -1 -16 -2 -63
-2 -104 -2 -82 -19 -134 -50 -150 -35 -19 -52 -64 -39 -102 33 -96 155 -134
257 -82 25 12 50 23 55 23 5 0 18 8 28 17 14 13 41 17 126 18 119 2 136 6 173
46 25 29 144 80 165 72 7 -2 52 8 101 22 110 31 173 38 193 20 8 -8 27 -16 42
-19 38 -6 48 -14 48 -36 0 -10 5 -22 11 -25 5 -4 7 -19 4 -34 -6 -30 9 -81 28
-93 7 -4 26 -8 44 -8 22 0 36 -6 43 -20 6 -11 17 -20 25 -20 27 0 51 -34 44
-60 -23 -83 8 -135 101 -168 91 -33 113 -36 148 -18 28 14 32 14 55 -4 29 -23
72 -26 103 -7 81 47 116 61 163 68 61 9 95 30 129 80 32 48 46 65 137 164 44
48 82 90 85 94 3 4 26 21 51 38 50 35 114 113 149 183 13 25 33 59 45 75 33
44 55 102 55 147 0 21 6 53 13 71 7 18 13 55 12 83 -1 42 -8 63 -43 116 -31
47 -40 71 -37 91 3 15 1 27 -5 27 -6 0 -16 11 -22 25 -6 14 -16 25 -22 25 -6
0 -20 30 -31 66 -20 66 -40 94 -102 141 -30 23 -32 28 -29 76 2 29 -2 61 -7
72 -6 11 -10 49 -9 84 1 74 -23 127 -64 137 -20 5 -24 12 -24 48 -1 22 -7 59
-15 81 -8 22 -15 49 -15 61 0 11 -6 28 -12 37 -15 18 -87 32 -105 20z m-482
-179 c19 -3 40 -7 47 -7 6 0 12 -1 12 -2 0 -2 -40 -79 -56 -105 -26 -46 -3
-91 71 -138 22 -14 49 -35 60 -47 11 -12 31 -29 45 -38 14 -10 40 -29 59 -42
45 -33 94 -33 137 0 46 35 111 173 120 256 9 84 22 120 24 64 1 -65 9 -82 49
-97 36 -15 37 -16 36 -69 0 -30 6 -68 12 -86 8 -20 10 -40 4 -55 -8 -23 -7
-41 3 -84 4 -13 33 -44 66 -69 33 -25 60 -53 60 -61 0 -8 4 -22 9 -32 6 -9 12
-33 16 -53 4 -25 13 -39 29 -47 16 -7 25 -22 29 -47 3 -19 24 -63 46 -97 47
-69 47 -70 25 -135 -9 -26 -16 -64 -16 -84 1 -26 -10 -54 -42 -105 -23 -38
-55 -90 -70 -116 -14 -26 -45 -62 -68 -80 -79 -62 -255 -249 -305 -323 -33
-50 -40 -55 -81 -55 -18 0 -67 -17 -109 -37 l-76 -37 -27 32 -26 32 -53 -26
c-49 -25 -56 -26 -94 -14 -23 8 -45 16 -49 19 -4 3 -2 27 4 52 9 38 8 52 -6
81 -10 20 -16 45 -15 55 2 10 0 24 -5 31 -4 7 -3 18 2 25 5 7 14 25 19 42 9
27 7 32 -29 57 -21 16 -40 28 -43 28 -3 0 -28 -16 -55 -36 -28 -20 -52 -35
-53 -33 -1 2 -8 15 -15 28 -8 13 -15 33 -18 45 -4 25 -49 64 -84 73 -14 3 -40
14 -59 24 -44 23 -136 18 -245 -15 -45 -14 -95 -25 -111 -24 -45 1 -173 -52
-207 -87 -28 -29 -32 -30 -131 -31 -93 -1 -123 -7 -167 -33 -51 -29 -100 -51
-118 -51 -28 0 -37 18 -19 38 9 9 25 41 36 70 20 51 22 69 24 247 0 58 -9 158
-18 186 -4 10 -2 20 4 20 6 1 17 2 24 3 18 2 21 43 8 103 -11 46 -10 55 8 89
12 21 21 43 21 47 0 24 146 117 199 127 25 5 66 17 91 27 25 11 72 25 104 32
53 12 66 20 122 77 34 36 68 80 74 99 10 30 14 33 34 26 30 -12 53 3 61 40 4
18 16 35 31 41 13 6 24 18 24 26 0 17 95 108 121 115 10 3 29 -8 47 -28 22
-23 43 -34 74 -38 37 -5 47 -2 71 21 16 15 35 42 42 60 8 17 19 32 24 32 6 0
11 6 11 13 1 29 38 61 76 64 22 1 50 11 64 22 17 12 30 16 41 10 9 -4 31 -11
50 -15z"/>
<path d="M14927 10913 c-8 -10 -19 -31 -23 -48 -15 -66 -116 -172 -189 -199
-75 -28 -92 -41 -115 -93 -24 -55 -27 -84 -17 -170 8 -67 -3 -103 -46 -151
-17 -19 -21 -35 -21 -90 1 -79 17 -190 33 -219 14 -27 93 -73 124 -73 14 0 54
13 90 29 83 37 64 -2 233 486 21 61 44 124 51 142 7 17 13 36 13 42 0 6 4 11
9 11 36 0 36 158 0 269 -21 64 -35 78 -83 79 -30 2 -48 -3 -59 -15z m41 -235
c-18 -7 -23 -30 -19 -76 1 -13 -3 -30 -9 -37 -6 -8 -14 -29 -17 -47 -2 -18
-28 -98 -58 -178 -29 -80 -64 -181 -79 -225 -33 -99 -34 -101 -76 -119 -43
-18 -70 -6 -70 31 0 15 -5 53 -12 85 -11 53 -10 60 9 86 60 82 75 141 56 233
-16 73 5 112 71 134 55 19 127 78 181 150 l30 40 5 -35 c4 -27 1 -37 -12 -42z"/>
<path d="M22368 10733 c-28 -12 -37 -22 -41 -46 -3 -18 1 -45 8 -62 7 -16 16
-40 20 -53 8 -26 65 -58 88 -49 54 21 28 231 -27 226 -6 -1 -27 -8 -48 -16z"/>
<path d="M22107 10338 c-20 -23 -25 -38 -20 -57 10 -41 47 -94 97 -138 35 -31
53 -40 80 -39 42 1 55 13 66 60 7 34 5 39 -57 111 -87 103 -123 116 -166 63z"/>
<path d="M20313 8870 c-24 -10 -53 -58 -53 -88 0 -11 -7 -36 -15 -55 -22 -52
-19 -85 11 -124 24 -32 29 -34 68 -27 22 3 52 15 65 25 13 11 31 19 40 19 18
0 107 88 135 133 20 33 15 74 -15 106 -16 17 -26 20 -57 14 -40 -7 -67 -7
-122 1 -19 3 -45 1 -57 -4z m81 -141 c-20 -22 -34 -17 -27 10 3 13 11 17 24
14 19 -5 19 -7 3 -24z"/>
<path d="M15683 8299 c-11 -4 -30 -26 -41 -50 l-21 -42 30 -38 c28 -35 33 -38
74 -34 55 4 81 19 105 57 18 30 18 31 -3 64 -29 44 -91 63 -144 43z"/>
<path d="M8564 8130 c-11 -3 -31 -13 -46 -24 -23 -15 -28 -26 -28 -61 0 -66
20 -78 125 -74 83 4 88 5 116 37 29 32 29 33 14 69 -15 36 -29 50 -50 55 -22
4 -114 3 -131 -2z"/>
<path d="M14684 15179 c-32 -15 -68 -36 -78 -48 -11 -12 -24 -21 -31 -21 -16
0 -49 -37 -69 -78 -22 -44 -13 -87 27 -129 17 -18 28 -33 24 -33 -18 0 27 -61
92 -125 76 -74 80 -86 61 -157 -9 -31 -7 -46 11 -88 20 -46 27 -53 99 -89 44
-22 99 -41 126 -44 121 -13 212 50 175 121 -5 9 -11 36 -15 59 -5 42 -24 83
-38 83 -14 0 -9 22 7 34 8 6 18 29 21 52 5 38 2 44 -37 83 -23 22 -48 41 -55
41 -6 0 -31 16 -54 35 -23 19 -48 35 -56 35 -20 0 -53 40 -47 56 3 8 9 12 13
9 4 -2 26 9 48 25 38 27 40 32 35 67 -7 51 -31 100 -51 108 -9 4 -47 13 -83
19 -62 11 -68 10 -125 -15z m96 -96 c0 -5 -18 -34 -40 -66 -22 -31 -40 -64
-40 -71 0 -8 13 -25 29 -38 15 -13 36 -35 46 -50 9 -15 32 -33 51 -40 25 -9
35 -19 40 -42 3 -17 13 -38 20 -47 8 -9 16 -30 18 -47 3 -17 14 -40 25 -51 12
-12 21 -25 21 -30 0 -5 11 -22 24 -38 13 -16 26 -42 27 -58 4 -28 2 -30 -27
-29 -18 0 -59 14 -93 30 -69 33 -69 33 -42 137 l18 69 -25 16 c-49 34 -165
157 -175 187 -5 16 -19 40 -29 52 -20 21 -17 43 5 43 6 0 23 12 38 26 44 42
109 70 109 47z"/>
</g>
</svg>
